<svg xmlns="http://www.w3.org/2000/svg" version="1.1" xmlns:xlink="http://www.w3.org/1999/xlink" xmlns:svgjs="http://svgjs.dev/svgjs" width="1000" height="1000"><g clip-path="url(#SvgjsClipPath1105)"><rect width="1000" height="1000" fill="#ffffff"></rect><g transform="matrix(5.353605894426976,0,0,5.353605894426976,144.98014581038842,50.00013289394491)"><svg xmlns="http://www.w3.org/2000/svg" version="1.1" xmlns:xlink="http://www.w3.org/1999/xlink" xmlns:svgjs="http://svgjs.dev/svgjs" width="132.62831115722656" height="168.11099243164062"><svg xmlns="http://www.w3.org/2000/svg" xmlns:xlink="http://www.w3.org/1999/xlink" width="132.62831115722656" height="168.11099243164062" viewBox="0 0 132.62831115722656 168.11099243164062" fill="none">
<path d="M112.307 96.0019C112.307 96.0019 112.307 96.7595 112.307 69.9854C112.307 43.2113 91.7124 24.0041 66.1487 24.0041C40.5849 24.0041 20 43.2015 20 69.9854L20 96.0019C20 122.776 40.5947 145.004 66.1487 145.004C91.7026 145.004 112.307 122.776 112.307 96.0019Z" stroke="rgba(5, 57, 127, 1)" stroke-width="2.5">
</path>
<g>
<path fill="#05397F" d="M48.802 42.5641Q49.516 42.0541 52.015 42.8701Q54.514 43.6861 55.636 44.7061Q56.044 45.3181 56.86 45.9301Q57.982 46.7461 58.951 48.4801Q59.92 50.2141 60.022 51.3361Q60.124 52.2541 59.971 52.7131Q59.818 53.1721 58.9 54.0901L56.554 56.7421Q55.024 58.3741 54.616 59.0881Q54.208 59.8021 54.412 60.6181Q54.718 61.5361 54.718 62.6071Q54.718 63.6781 55.075 64.8511Q55.432 66.0241 55.126 66.4321Q54.718 67.1461 54.718 68.3701Q54.718 69.5941 55.228 70.2061Q55.738 70.9201 55.84 75.7141Q55.942 80.5081 56.044 86.1181Q56.758 108.864 56.248 110.598Q55.942 111.924 55.84 112.74Q55.33 116.106 53.698 120.033Q52.066 123.96 51.046 123.96Q50.434 123.96 50.23 123.552Q50.23 123.246 49.618 124.164Q49.516 124.266 49.516 124.368Q48.394 126.51 48.292 125.286Q48.19 125.184 48.19 125.082Q48.19 124.47 47.476 122.685Q46.762 120.9 46.405 119.676Q46.048 118.452 45.079 116.259Q44.11 114.066 44.11 113.556Q44.11 113.046 43.906 112.842Q43.702 112.638 43.702 111.72Q43.6 111.108 43.753 111.006Q43.906 110.904 44.314 111.006Q45.946 111.516 46.354 111.363Q46.762 111.21 47.272 110.598Q47.884 109.578 48.037 107.844Q48.19 106.11 48.394 105.804Q48.598 105.498 48.598 99.9901Q48.598 94.4821 48.394 93.4621Q48.19 92.4421 47.782 92.4421Q47.374 92.4421 46.099 94.2781Q44.824 96.1141 44.161 96.8791Q43.498 97.6441 43.498 97.7461Q43.498 98.1541 40.336 103.05Q35.338 110.904 34.624 110.904Q34.522 110.904 33.808 109.476Q33.094 108.048 31.87 106.212Q30.646 104.07 30.646 103.05Q30.646 102.03 31.768 100.092Q33.094 98.0521 34.114 96.2161L36.664 91.8301Q38.194 89.0761 39.418 86.8321Q40.642 84.5881 41.152 83.9251Q41.662 83.2621 42.58 81.4261L44.212 78.3661Q44.926 77.2441 45.844 75.0001Q46.558 73.3681 46.66 72.8581Q46.762 72.3481 46.456 71.5321Q45.844 69.9001 45.334 70.7161Q45.028 71.1241 41.866 74.0311Q38.704 76.9381 37.786 77.5501Q36.562 78.2641 35.032 79.6921Q33.502 81.1201 32.89 81.3751Q32.278 81.6301 31.564 81.1201Q30.748 80.6101 30.442 79.9471Q30.136 79.2841 29.677 79.0291Q29.218 78.7741 26.974 76.5301Q23.914 73.2661 25.342 72.8581Q25.954 72.6541 27.688 71.0221L31.156 67.6561Q36.97 62.4541 39.01 60.1081L39.724 59.3941L38.5 58.7821Q36.97 58.1701 34.267 56.5381Q31.564 54.9061 31.462 54.7021Q31.462 54.6001 31.564 54.4981Q31.666 54.3961 31.972 54.2431Q32.278 54.0901 32.686 54.0901Q33.094 54.0901 33.553 54.0901Q34.012 54.0901 34.318 54.0901Q35.644 54.3961 37.888 54.4981Q40.132 54.6001 41.152 54.9061Q42.58 55.3141 43.294 54.8041Q44.008 54.2941 46.456 50.6221L48.598 47.7661Q50.536 45.1141 49.618 44.2981Q49.006 43.7881 48.802 43.2271Q48.598 42.6661 48.802 42.5641ZM84.196 40.4221Q84.4 39.9121 86.44 40.4221Q88.99 41.0341 90.52 43.7881Q92.254 47.2561 92.05 50.9281L91.846 53.0701L93.274 53.4781Q95.008 53.8861 96.538 54.7531Q98.068 55.6201 98.272 56.3341Q98.476 57.2521 98.833 57.2521Q99.19 57.2521 99.19 57.7621Q99.19 58.5781 100.414 60.1081Q100.72 60.5161 100.312 60.6181Q100.006 60.6181 98.986 60.6181Q97.252 60.5161 96.028 60.8221Q91.642 61.9441 90.52 61.9441Q89.704 61.9441 87.46 67.7581Q85.828 71.9401 84.298 73.1641Q83.584 73.6741 83.278 74.2861Q82.768 74.7961 83.278 74.7961Q83.584 74.7961 84.604 74.6941Q86.338 74.3881 87.256 74.1331Q88.174 73.8781 88.99 73.7251Q89.806 73.5721 90.316 73.3681Q90.826 73.2661 92.509 73.6741Q94.192 74.0821 95.314 74.5921Q96.436 75.0001 96.691 75.0511Q96.946 75.1021 98.323 76.1221Q99.7 77.1421 100.618 77.6011Q101.536 78.0601 101.74 79.1821Q101.944 80.3041 102.556 82.1401Q103.474 85.4041 102.811 85.4041Q102.148 85.4041 101.638 90.5041Q101.536 92.7481 101.383 93.4621Q101.23 94.1761 100.822 98.0011Q100.414 101.826 100.108 102.438Q99.802 103.05 99.496 104.529Q99.19 106.008 98.935 107.334Q98.68 108.66 98.833 108.915Q98.986 109.17 98.68 109.476Q98.272 109.986 97.864 113.862Q97.66 115.29 97.507 115.698Q97.354 116.106 97.405 116.514Q97.456 116.922 97.15 117.075Q96.844 117.228 96.742 118.707Q96.64 120.186 96.334 120.9Q96.13 121.308 96.028 121.41Q95.926 121.512 95.518 121.104Q94.804 120.594 93.478 118.044Q91.642 114.27 91.132 113.811Q90.622 113.352 89.5 113.556L84.808 114.678Q81.238 115.392 80.116 115.8Q78.382 116.31 75.883 116.718Q73.384 117.126 72.466 116.922L71.344 116.82L71.548 117.738Q71.65 118.452 71.344 118.248Q70.936 118.044 68.794 115.8Q65.938 112.944 64.867 112.536Q63.796 112.128 63.592 111.72Q62.878 110.598 63.796 109.884Q64.408 109.476 64.459 106.62Q64.51 103.764 64.204 102.948Q63.898 102.132 63.286 94.9921Q62.266 82.9561 60.94 81.8341Q60.532 81.2221 59.206 80.3041Q57.778 79.2841 57.931 78.8251Q58.084 78.3661 59.818 78.3661Q61.654 78.3661 63.082 78.9271Q64.51 79.4881 65.938 79.0801Q67.366 78.6721 71.14 77.7541Q75.73 76.5301 75.73 76.2241Q75.73 75.9181 73.384 73.6741L70.936 71.5321L70.63 68.8801L70.324 66.3301L68.386 65.7181Q65.326 64.6981 63.694 63.2701Q62.776 62.3521 61.603 61.8421Q60.43 61.3321 60.226 60.7711Q60.022 60.2101 60.583 59.6491Q61.144 59.0881 61.96 59.0881Q63.184 59.0881 69.712 57.0481Q70.12 56.9461 70.171 56.5381Q70.222 56.1301 70.018 54.4981Q69.814 50.6221 68.692 47.0521Q68.488 46.0321 68.59 45.9301Q68.692 45.8281 70.222 46.2361Q71.752 46.6441 72.466 47.0521Q73.69 47.6641 75.067 49.8571Q76.444 52.0501 76.852 53.8861Q76.954 54.6001 77.107 54.7531Q77.26 54.9061 77.77 54.8041L81.238 54.0901L83.992 53.6821L84.4 50.6221Q84.808 47.7661 84.808 44.9101Q84.808 42.0541 84.451 41.3401Q84.094 40.6261 84.196 40.4221ZM80.83 64.9021Q81.136 64.0861 80.932 64.0861Q78.79 64.4941 78.178 64.8001Q77.974 64.9021 77.77 66.7891Q77.566 68.6761 77.464 70.2571Q77.362 71.8381 77.668 72.0421Q77.77 72.0421 78.943 69.3391Q80.116 66.6361 80.83 64.9021ZM80.218 74.0821Q80.218 73.2661 79.3 74.5921Q78.79 75.2041 78.484 74.7961Q78.076 74.2861 77.77 74.7961Q77.566 75.0001 77.668 75.5101Q77.872 76.0201 78.637 75.9181Q79.402 75.8161 79.708 75.1021Q80.218 74.1841 80.218 74.0821ZM93.478 82.6501Q93.172 81.6301 92.509 81.4261Q91.846 81.2221 89.806 81.7321Q88.072 82.0381 87.052 82.2421Q85.114 82.6501 84.808 86.6281L84.604 88.8721L86.236 88.7701Q87.868 88.6681 88.429 88.2091Q88.99 87.7501 91.234 88.3621Q93.478 88.9741 93.988 89.0761Q94.294 89.2801 94.396 89.1781Q94.498 89.0761 94.396 88.6681Q94.294 87.9541 93.988 87.7501Q93.682 87.5461 94.09 87.2401Q94.804 86.0161 94.498 84.9961Q94.396 84.9961 94.294 84.8941Q94.192 84.7921 94.09 84.4861Q93.988 83.7721 93.478 82.6501ZM77.668 87.3421L77.566 84.2821L76.75 84.2821Q76.036 84.2821 74.353 84.6901Q72.67 85.0981 70.936 85.0981Q69.814 85.0981 69.559 85.2001Q69.304 85.3021 69.406 85.8121Q69.508 86.5261 69.916 89.0761Q70.222 92.0341 70.426 92.5441Q70.63 93.0541 70.936 93.0541Q71.446 93.0541 74.506 92.0341Q77.566 91.0141 77.77 90.7081Q77.872 90.5041 77.668 87.3421ZM93.58 95.5021Q93.274 95.1961 91.438 95.4511Q89.602 95.7061 87.307 96.5221Q85.012 97.3381 84.706 97.7461Q84.4 98.3581 84.247 100.857Q84.094 103.356 84.094 103.764Q83.89 105.192 84.349 105.447Q84.808 105.702 85.522 104.784L86.134 103.968L87.154 104.682Q87.766 104.886 89.602 105.651Q91.438 106.416 91.948 106.416Q92.05 106.416 92.254 103.968Q92.458 101.52 92.713 101.163Q92.968 100.806 92.815 99.7351Q92.662 98.6641 93.019 98.5111Q93.376 98.3581 93.172 97.2361Q92.968 96.1141 93.274 95.9611Q93.58 95.8081 93.58 95.5021ZM76.852 101.01Q76.852 100.5 76.546 100.449Q76.24 100.398 75.373 100.602Q74.506 100.806 72.67 100.806L71.038 100.806L71.14 104.376Q71.14 107.436 71.599 107.742Q72.058 108.048 74.404 107.436L76.444 106.926L76.546 104.172Q76.75 101.52 76.852 101.01Z">
</path>
</g>
<path d="M132.5 65.2841C131.54 29.4941 103 0.544056 67.14 0.0040555C30.36 -0.395945 1 28.8441 0 65.2841L0 100.004C1.43 138.434 28.27 168.934 67.79 168.094C104.86 167.264 131.66 137.324 132.53 101.154C132.53 89.1741 132.77 77.2341 132.5 65.2841ZM129.29 101.084C129.29 134.684 103.72 162.194 71.21 164.664C70.66 164.664 70.12 164.744 69.57 164.764C69.02 164.784 68.48 164.814 67.93 164.824C67.38 164.834 66.82 164.824 66.26 164.824C65.7 164.824 65.15 164.824 64.6 164.824C64.05 164.824 63.5 164.824 62.95 164.764C62.4 164.704 61.86 164.704 61.32 164.664C60.78 164.624 60.23 164.574 59.7 164.514C59.17 164.454 58.62 164.404 58.09 164.334L56.49 164.114C25.26 159.334 3.22999 132.364 3.22999 101.114C3.22999 89.2341 2.95999 77.2641 3.22999 65.3941C3.22999 64.8441 3.22999 64.3041 3.27999 63.7641C3.27999 63.2241 3.33999 62.6841 3.37999 62.1441C3.41999 61.6041 3.5 61.0041 3.55 60.5041C3.6 60.0041 3.66 59.4341 3.73 58.9041C7.26 30.2441 29.48 7.38406 58.09 3.75406L59.7 3.56406L61.32 3.42406L63 3.31406L64.65 3.25406L66.31 3.25406L67.98 3.25406L69.62 3.31406L71.26 3.42406L72.88 3.56406C101.97 6.51406 125.24 29.5641 128.88 58.9041C128.95 59.4341 129 59.9741 129.06 60.5041C129.12 61.0341 129.15 61.5741 129.2 62.1141C129.25 62.6541 129.27 63.1941 129.29 63.7341C129.29 64.2741 129.29 64.8141 129.35 65.3641C129.56 77.2341 129.29 89.2041 129.29 101.084Z" fill-rule="evenodd" fill="#05397F">
</path>
<path d="M97.31 34.2641L97.31 34.3641L97.31 34.4841L97.39 34.6241L97.49 34.7741L97.62 34.9541L97.75 35.1241L97.82 35.1241L97.9 35.1241L98.71 35.1241L98.86 35.1241L99.24 35.1241L99.36 35.1241L99.5 35.1241L99.62 35.1241L99.79 35.1241L99.96 35.1241L100.21 35.0441L100.47 34.9541L100.87 34.7941L101.25 34.6341L101.35 34.6341C101.603 34.5279 101.863 34.4412 102.13 34.3741L102.33 34.3141L102.54 34.2641L102.7 34.2641L102.86 34.2641L102.99 34.2641L103.11 34.2641L103.17 34.2641L103.4 34.5341L103.62 34.8241C103.76 35.0141 103.91 35.2041 104.03 35.4041L104.03 35.4741C104.035 35.5341 104.035 35.5941 104.03 35.6541C104.03 35.6541 104.03 35.6541 104.03 35.7241C104.035 35.7474 104.035 35.7707 104.03 35.7941L104.03 35.9241L104.03 36.0641L104.45 36.6141L104.54 36.6141L104.63 36.6141C104.67 36.6049 104.71 36.6049 104.75 36.6141L104.87 36.6141L104.98 36.6141L105.08 36.6641L105.26 36.6641L105.36 36.6641L106 36.6641L106 36.6041C106.012 36.5525 106.029 36.5025 106.05 36.4541L106.05 36.3841L106.05 36.5041C106.05 36.5041 106.05 36.4141 106.05 36.3741L106.05 36.2741L106.05 36.2241C106.054 36.1941 106.054 36.1641 106.05 36.1341C106.046 36.1074 106.046 36.0807 106.05 36.0541C106.05 36.0541 106.05 36.0041 106.05 35.9741C106.055 35.9341 106.055 35.8941 106.05 35.8541C106.045 35.8341 106.045 35.8141 106.05 35.7941L106.05 35.7341L105.96 35.5941L105.1 34.3841L104.89 34.0841L104.79 34.0841L104.22 33.3241L104.16 33.1741L104.16 33.0741L104.16 33.0041L104.16 32.9441L104.16 32.8741L104.16 32.7741L104.7 32.3641L104.84 32.3641L104.9 32.3641L105.08 32.3641L105.79 32.3641L106.06 32.3641L106.31 32.3641L106.4 32.3641C106.465 32.3486 106.528 32.3286 106.59 32.3041C106.684 32.2625 106.771 32.2092 106.85 32.1441L106.93 32.0341L107.02 31.9341L107.13 31.7841C107.129 31.7674 107.129 31.7507 107.13 31.7341C107.125 31.7041 107.125 31.6741 107.13 31.6441L107.13 31.5941L107.13 31.4641C107.13 31.3941 107.13 31.3141 107.08 31.2441L107.02 31.0341C107.01 30.9741 107.01 30.9141 107.02 30.8541L106.84 30.6141C106.792 30.5525 106.739 30.4959 106.68 30.4441L106.5 30.3041L106.44 30.3041C106.403 30.2709 106.363 30.2409 106.32 30.2141L106.27 30.2141L106.27 30.1641L106.21 30.0941L105.96 29.9341L106 29.4041L105.88 29.3041L105.38 29.3041L105.26 29.4041L105.18 29.4941L105.11 29.5941L105.11 29.6541L105.11 29.7041C105.099 29.7774 105.099 29.8507 105.11 29.9241L105.11 29.9841L105.11 30.0941L105.18 30.3441L105.18 30.4741L105.12 30.5541C105.021 30.6709 104.931 30.7943 104.85 30.9241L104.7 31.0441L104.64 31.0441L104.45 31.0441L104.39 31.0441L104.32 31.0441L104 31.0441C103.932 31.0964 103.872 31.1564 103.82 31.2241L103.75 31.3141L103.68 31.4041L103.48 31.5541L103.23 31.7441L103.01 31.9141L102.85 31.8241L102.76 31.7541L102.68 31.7041L102.57 31.6141C102.538 31.5755 102.501 31.5421 102.46 31.5141L102.38 31.4441L102.31 31.3641L102.21 31.2641L102.09 31.1641L101.99 31.0741L101.88 30.9841L101.88 30.9341C101.72 30.7741 101.54 30.6341 101.37 30.4941L101.19 30.3541L101.01 30.2141L100.85 30.1041L100.68 30.0041C100.634 29.9725 100.584 29.9492 100.53 29.9341L100.46 29.9341L100.35 29.7941L100.27 29.7241L100.19 29.6441L100.13 29.6441L100.13 29.5941L99.81 29.2841C99.7135 29.1922 99.6102 29.1089 99.5 29.0341L99 29.0341L98.91 29.0341L98.84 29.0341L98.55 29.2341L98.44 29.3141L98.44 29.5141L98.5 29.6441L98.57 29.7741L98.57 29.8341L98.57 29.8941C98.6002 29.9398 98.6335 29.9831 98.67 30.0241C98.6977 30.0717 98.7311 30.1151 98.77 30.1541L98.9 30.2641L99.03 30.3641L99.87 31.0241L100.32 31.3841L100.77 31.7541L101.18 32.1441L101.46 32.4341L101.63 32.6341L101.78 32.8341L101.85 32.9341L101.92 33.0541C101.916 33.0774 101.916 33.1007 101.92 33.1241L101.92 33.1741L101.92 33.2541L101.92 33.3141L101.85 33.3141L101.67 33.4541L101.5 33.5641L101.33 33.6741L101.24 33.6741L101.15 33.6741L101.01 33.6741L100.89 33.7241L100.83 33.7241L100.53 33.7241L100.34 33.7241L100.19 33.7241L100.03 33.7241L99.69 33.8141L99.28 33.9141L99.11 34.0041L99 34.0041L98.91 34.0041L98.84 34.0041L98.56 33.8441L98.28 33.6841L97.96 33.8141L97.81 33.8941L97.68 33.9641L97.58 34.0341L97.4 34.0041L97.4 34.0641L97.4 34.1241L97.4 34.1941L97.4 34.2741L97.31 34.2641Z" fill-rule="evenodd" fill="#05397F">
</path>
<path d="M46.2102 146.584C46.2074 146.53 46.1873 146.483 46.1502 146.444L45.9602 146.284C45.8664 146.2 45.7631 146.13 45.6502 146.074C45.5405 146.003 45.4238 145.946 45.3002 145.904C45.2236 145.867 45.1435 145.841 45.0602 145.824C45.0101 145.807 44.9602 145.807 44.9102 145.824C44.8644 145.838 44.8277 145.865 44.8002 145.904L42.2101 149.724L37.5001 147.004L40.0901 143.184C40.1063 143.167 40.1188 143.148 40.1275 143.126C40.1363 143.105 40.1406 143.082 40.1406 143.059C40.1406 143.036 40.1363 143.013 40.1275 142.992C40.1188 142.97 40.1063 142.951 40.0901 142.934C40.031 142.873 39.9677 142.816 39.9001 142.764C39.7979 142.687 39.6913 142.617 39.5801 142.554L39.2401 142.384L39.0001 142.304L38.8401 142.304C38.7971 142.323 38.7638 142.353 38.7401 142.394L32.5201 151.544C32.5098 151.584 32.5098 151.624 32.5201 151.664C32.5252 151.714 32.5452 151.757 32.5801 151.794C32.6395 151.855 32.7028 151.912 32.7701 151.964L33.0801 152.174L33.4201 152.344C33.5005 152.38 33.5838 152.407 33.6701 152.424C33.7235 152.44 33.7768 152.44 33.8301 152.424C33.8705 152.406 33.9039 152.379 33.9301 152.344L36.8001 148.114L41.5101 150.824L38.6401 155.054C38.6282 155.094 38.6282 155.134 38.6401 155.174C38.6516 155.224 38.6749 155.267 38.7101 155.304C38.7637 155.365 38.8237 155.418 38.8901 155.464C38.9894 155.548 39.0961 155.621 39.2101 155.684C39.3184 155.748 39.4317 155.801 39.5501 155.844C39.6271 155.88 39.7071 155.907 39.7901 155.924C39.8136 155.933 39.838 155.938 39.8632 155.939C39.8885 155.94 39.9131 155.936 39.9369 155.927C39.9608 155.919 39.9825 155.907 40.0019 155.891C40.0215 155.875 40.0375 155.856 40.0501 155.834L46.2601 146.694C46.2558 146.652 46.2391 146.615 46.2102 146.584Z" fill-rule="evenodd" fill="#05397F">
</path>
<path d="M7.72019 107.564C8.22032 107.735 8.73365 107.798 9.26019 107.754C9.45922 107.75 9.6559 107.727 9.85023 107.683C10.0445 107.64 10.2327 107.578 10.4147 107.497C10.5967 107.417 10.769 107.319 10.9315 107.204C11.094 107.089 11.2435 106.959 11.3802 106.814C11.6177 106.568 11.8244 106.298 12.0002 106.004C12.1602 105.684 12.3202 105.354 12.4502 105.004C12.5802 104.654 12.7202 104.354 12.8602 104.004C12.9821 103.706 13.1321 103.423 13.3102 103.154C13.4728 102.908 13.6761 102.701 13.9202 102.534C14.0468 102.451 14.1823 102.386 14.3266 102.34C14.4709 102.295 14.6188 102.27 14.7702 102.264C14.9979 102.246 15.2212 102.27 15.4402 102.334C15.6505 102.39 15.8372 102.49 16.0002 102.634C16.1758 102.788 16.3124 102.972 16.4102 103.184C16.5316 103.441 16.5982 103.711 16.6102 103.994C16.6335 104.301 16.6102 104.604 16.5402 104.904C16.4812 105.153 16.3979 105.393 16.2902 105.624C16.2002 105.824 16.1102 105.994 16.0302 106.134C15.9718 106.23 15.9384 106.333 15.9302 106.444C15.9202 106.481 15.9202 106.518 15.9302 106.554C15.9726 106.584 16.0193 106.604 16.0702 106.614L16.3002 106.614L16.6002 106.614L16.8902 106.614L17.0802 106.614L17.2102 106.614L17.3402 106.504C17.4298 106.396 17.4998 106.276 17.5502 106.144C17.6449 105.949 17.7182 105.746 17.7702 105.534C17.8332 105.298 17.8798 105.058 17.9102 104.814C17.9301 104.561 17.9301 104.308 17.9102 104.054C17.8781 103.59 17.7714 103.143 17.5902 102.714C17.4276 102.332 17.1942 101.998 16.8902 101.714C16.5888 101.419 16.2388 101.202 15.8402 101.064C15.3914 100.917 14.9314 100.86 14.4602 100.894C14.0222 100.918 13.6022 101.018 13.2002 101.194C12.8727 101.361 12.5793 101.574 12.3202 101.834C12.0698 102.088 11.8598 102.371 11.6902 102.684C11.5172 103.008 11.3639 103.342 11.2302 103.684L10.8302 104.684C10.7104 104.984 10.5604 105.267 10.3802 105.534C10.2157 105.772 10.0156 105.976 9.78018 106.144C9.65061 106.229 9.5119 106.294 9.36407 106.34C9.21623 106.386 9.06494 106.411 8.91019 106.414C8.61348 106.44 8.32348 106.406 8.04019 106.314C7.78522 106.234 7.56188 106.1 7.37019 105.914C7.17704 105.64 7.05371 105.336 7.00019 105.004C6.88403 104.722 6.81403 104.429 6.79019 104.124C6.75026 103.748 6.76693 103.375 6.84019 103.004C6.91412 102.71 7.01079 102.424 7.13019 102.144C7.22086 101.941 7.3242 101.744 7.44019 101.554C7.51792 101.45 7.56126 101.334 7.57019 101.204C7.58212 101.164 7.58212 101.124 7.57019 101.084C7.52171 101.04 7.46504 101.014 7.40019 101.004C7.32686 100.992 7.25352 100.992 7.18019 101.004C7.06352 100.994 6.94686 100.994 6.83019 101.004C6.67238 101.005 6.51905 101.032 6.37019 101.084C6.26827 101.118 6.17827 101.171 6.10019 101.244C5.99794 101.358 5.91461 101.485 5.85019 101.624C5.74353 101.833 5.65687 102.05 5.59019 102.274C5.49659 102.558 5.43326 102.848 5.40019 103.144C5.34113 103.575 5.33959 104.006 5.39557 104.436C5.45155 104.867 5.56309 105.283 5.73019 105.684C5.81846 105.906 5.92936 106.115 6.0629 106.311C6.19644 106.509 6.34951 106.689 6.52213 106.853C6.69474 107.017 6.8829 107.161 7.0866 107.284C7.29031 107.408 7.50484 107.508 7.73019 107.584L7.72019 107.564Z" fill-rule="evenodd" fill="#05397F">
</path>
<path d="M22.6207 122.884C22.6367 122.818 22.6367 122.751 22.6207 122.684C22.6131 122.584 22.5898 122.487 22.5507 122.394C22.5046 122.247 22.4479 122.104 22.3807 121.964C22.327 121.826 22.2637 121.693 22.1907 121.564C22.1468 121.478 22.0935 121.398 22.0307 121.324C21.9854 121.274 21.9321 121.234 21.8707 121.204C21.8041 121.188 21.7374 121.188 21.6707 121.204L9.67076 121.614C9.55742 121.599 9.44409 121.599 9.33076 121.614C9.26329 121.632 9.21329 121.672 9.18076 121.734C9.15058 121.814 9.15058 121.894 9.18076 121.974C9.2127 122.113 9.25936 122.246 9.32076 122.374C9.37238 122.495 9.43238 122.612 9.50076 122.724C9.53848 122.8 9.58848 122.867 9.65076 122.924C9.69446 122.963 9.74446 122.99 9.80076 123.004C9.85409 123.015 9.90742 123.015 9.96076 123.004L13.0608 122.854L14.9608 127.184L12.5908 129.104L12.4908 129.214C12.4791 129.264 12.4791 129.314 12.4908 129.364C12.4974 129.448 12.5174 129.528 12.5508 129.604C12.5926 129.742 12.646 129.876 12.7108 130.004C12.7622 130.14 12.8255 130.27 12.9008 130.394C12.9392 130.474 12.9958 130.538 13.0708 130.584C13.1408 130.61 13.2108 130.61 13.2808 130.584C13.3836 130.539 13.4769 130.479 13.5608 130.404L22.5607 122.994C22.5861 122.96 22.6061 122.924 22.6207 122.884ZM16.0008 126.414L14.4108 122.794L20.8407 122.494L16.0008 126.414Z" fill-rule="evenodd" fill="#05397F">
</path>
<path d="M33.45 145.094C33.462 145.021 33.462 144.947 33.45 144.874C33.4407 144.804 33.4207 144.737 33.39 144.674C33.3552 144.614 33.3119 144.561 33.26 144.514L30.52 142.004C30.484 141.976 30.444 141.956 30.4 141.944C30.3467 141.935 30.2933 141.935 30.24 141.944C30.1726 141.969 30.1093 142.003 30.05 142.044C29.9735 142.103 29.9001 142.167 29.83 142.234C29.7021 142.337 29.6055 142.463 29.54 142.614C29.5291 142.636 29.5223 142.659 29.5195 142.683C29.5166 142.707 29.5179 142.731 29.5234 142.755C29.5289 142.778 29.5382 142.8 29.5513 142.821C29.5645 142.842 29.5807 142.859 29.6 142.874L31.6 144.684L29.13 147.044C28.7566 146.947 28.3999 146.807 28.06 146.624C27.7291 146.441 27.4225 146.225 27.14 145.974C26.7189 145.601 26.3855 145.161 26.14 144.654C26.023 144.421 25.9357 144.178 25.8782 143.925C25.8207 143.671 25.7947 143.414 25.8 143.154C25.8119 142.877 25.8533 142.604 25.9241 142.336C25.9949 142.068 26.0935 141.811 26.22 141.564C26.5229 140.963 26.9229 140.437 27.42 139.984C27.884 139.533 28.4073 139.166 28.99 138.884C29.5238 138.62 30.0871 138.46 30.68 138.404C31.2563 138.352 31.8196 138.415 32.37 138.594C32.9531 138.793 33.4731 139.1 33.93 139.514C34.2888 139.825 34.5988 140.178 34.86 140.574C35.0497 140.872 35.2097 141.185 35.34 141.514C35.438 141.745 35.518 141.981 35.58 142.224C35.5941 142.359 35.6441 142.479 35.73 142.584C35.7667 142.593 35.8033 142.593 35.84 142.584C35.8933 142.598 35.9467 142.598 36 142.584L36.19 142.474L36.43 142.274C36.5403 142.172 36.6369 142.059 36.72 141.934C36.7695 141.844 36.7929 141.747 36.79 141.644C36.7756 141.473 36.7423 141.307 36.69 141.144C36.6027 140.884 36.4927 140.634 36.36 140.394C36.1832 140.084 35.9865 139.787 35.77 139.504C35.5163 139.17 35.2329 138.863 34.92 138.584C34.2982 138.029 33.5982 137.603 32.82 137.304C32.0834 137.037 31.3234 136.913 30.54 136.934C30.1464 136.951 29.7579 137.006 29.3746 137.097C28.9912 137.188 28.6197 137.313 28.26 137.474C27.4565 137.858 26.7432 138.368 26.12 139.004C25.5168 139.559 25.0301 140.203 24.66 140.934C24.5024 141.245 24.3806 141.569 24.2946 141.906C24.2085 142.243 24.1603 142.586 24.15 142.934C24.1529 143.282 24.1958 143.625 24.2785 143.963C24.3613 144.3 24.4818 144.624 24.64 144.934C24.8267 145.299 25.0471 145.642 25.3012 145.963C25.5553 146.284 25.8383 146.578 26.15 146.844C26.3761 147.044 26.6128 147.231 26.86 147.404C27.1152 147.584 27.3819 147.744 27.66 147.884C27.9299 148.032 28.2065 148.165 28.49 148.284C28.77 148.394 29.01 148.474 29.2 148.534C29.36 148.584 29.52 148.584 29.68 148.534C29.8215 148.492 29.9415 148.415 30.04 148.304L33.27 145.234C33.3359 145.195 33.3959 145.148 33.45 145.094Z" fill-rule="evenodd" fill="#05397F">
</path>
<path d="M20 116.734C20.0388 116.699 20.0588 116.656 20.06 116.604C20.0697 116.524 20.0697 116.444 20.06 116.364C20.045 116.122 19.9916 115.889 19.9 115.664C19.8749 115.59 19.8416 115.52 19.8 115.454C19.7676 115.411 19.7276 115.378 19.68 115.354C19.6367 115.339 19.5934 115.339 19.55 115.354L14.76 116.294L13.61 111.294L18.39 110.364C18.4362 110.356 18.4762 110.336 18.51 110.304C18.51 110.304 18.51 110.234 18.57 110.164C18.5802 110.087 18.5802 110.011 18.57 109.934C18.5655 109.812 18.5488 109.692 18.52 109.574C18.4938 109.457 18.4572 109.344 18.41 109.234C18.3844 109.157 18.351 109.084 18.31 109.014C18.2801 108.969 18.2401 108.935 18.19 108.914C18.1434 108.899 18.0967 108.899 18.05 108.914L6.59001 111.124C6.54391 111.132 6.50391 111.152 6.47001 111.184C6.44883 111.201 6.43292 111.221 6.42228 111.246C6.41164 111.271 6.40755 111.297 6.41001 111.324C6.4041 111.404 6.4041 111.484 6.41001 111.564C6.41001 111.654 6.41001 111.774 6.47001 111.914C6.49486 112.035 6.53152 112.151 6.58001 112.264C6.60515 112.338 6.63848 112.408 6.68001 112.474C6.70994 112.519 6.74994 112.553 6.80001 112.574C6.84668 112.589 6.89334 112.589 6.94001 112.574L12.23 111.574L13.39 116.574L8.09001 117.574C8.04391 117.582 8.00391 117.602 7.97001 117.634C7.93572 117.675 7.91572 117.721 7.91001 117.774C7.8999 117.851 7.8999 117.927 7.91001 118.004C7.89865 118.124 7.89865 118.244 7.91001 118.364C7.9347 118.481 7.97136 118.595 8.02001 118.704L8.12001 118.924C8.15238 118.967 8.19238 119 8.24001 119.024C8.28668 119.034 8.33334 119.034 8.38001 119.024L19.84 116.784C19.8999 116.788 19.9532 116.771 20 116.734Z" fill-rule="evenodd" fill="#05397F">
</path>
<path d="M29.7307 134.234C29.7472 134.188 29.7472 134.141 29.7307 134.094C29.7215 134.016 29.6982 133.943 29.6607 133.874L29.4807 133.594C29.4126 133.491 29.336 133.394 29.2507 133.304C29.2006 133.242 29.1406 133.192 29.0707 133.154C29.0238 133.128 28.9738 133.112 28.9207 133.104L28.8007 133.104L23.2407 136.424L21.9407 137.204L20.6507 137.994L21.1407 137.204L21.6307 136.394C21.7973 136.128 21.9673 135.848 22.1407 135.554L22.6507 134.674L25.5307 129.674C25.6274 129.525 25.7108 129.368 25.7807 129.204C25.8338 129.086 25.8672 128.963 25.8807 128.834C25.8888 128.72 25.8721 128.61 25.8307 128.504C25.7775 128.368 25.7075 128.242 25.6207 128.124L25.2007 127.524C25.1024 127.396 24.9758 127.31 24.8207 127.264C24.723 127.238 24.6242 127.233 24.5245 127.25C24.4247 127.268 24.3335 127.306 24.2507 127.364L14.8007 133.014C14.7686 133.04 14.7419 133.07 14.7207 133.104C14.6992 133.154 14.6992 133.204 14.7207 133.254C14.7351 133.324 14.7584 133.391 14.7907 133.454C14.8464 133.559 14.9097 133.659 14.9807 133.754C15.0842 133.922 15.2142 134.065 15.3707 134.184C15.4185 134.218 15.4719 134.235 15.5307 134.234C15.5707 134.244 15.6107 134.244 15.6507 134.234L21.8307 130.534L23.0107 129.824L24.1507 129.114C23.9407 129.434 23.7207 129.774 23.5007 130.114C23.2807 130.454 23.0807 130.804 22.8907 131.114L19.1607 137.564C19.0307 137.794 18.9207 137.984 18.8507 138.144C18.7881 138.289 18.7447 138.439 18.7207 138.594C18.6901 138.714 18.6901 138.834 18.7207 138.954C18.7684 139.082 18.8317 139.202 18.9107 139.314L19.1907 139.714C19.2399 139.776 19.2966 139.829 19.3607 139.874C19.4249 139.929 19.4982 139.966 19.5807 139.984C19.6707 140.004 19.7607 140.004 19.8507 139.984C19.9614 139.968 20.0647 139.932 20.1607 139.874L29.6007 134.224C29.6429 134.242 29.6862 134.246 29.7307 134.234Z" fill-rule="evenodd" fill="#05397F">
</path>
<path d="M52.41 148.645C52.3187 148.585 52.222 148.535 52.12 148.495C52 148.445 51.85 148.385 51.66 148.325L51.21 148.195C51.1121 148.166 51.0121 148.149 50.91 148.145C50.8434 148.123 50.7767 148.123 50.71 148.145C50.651 148.169 50.601 148.206 50.56 148.255L42.83 156.775C42.7475 156.851 42.6842 156.941 42.64 157.045C42.6249 157.073 42.6173 157.103 42.6173 157.135C42.6173 157.167 42.6249 157.197 42.64 157.225C42.64 157.285 42.73 157.335 42.84 157.385C42.9738 157.445 43.1104 157.499 43.25 157.545C43.3832 157.597 43.5199 157.637 43.66 157.665L43.92 157.665L44.08 157.615C44.1246 157.587 44.1646 157.553 44.2 157.515L46.15 155.285L50.92 156.885L50.92 159.785L50.92 159.935C50.9436 159.979 50.9736 160.019 51.01 160.055C51.087 160.101 51.167 160.141 51.25 160.175C51.3901 160.237 51.5334 160.29 51.68 160.335C51.8274 160.387 51.9774 160.431 52.13 160.465C52.2167 160.489 52.3034 160.489 52.39 160.465C52.4238 160.452 52.4531 160.432 52.4777 160.406C52.5023 160.38 52.5198 160.349 52.53 160.315C52.5388 160.211 52.5388 160.108 52.53 160.005L52.53 148.905C52.5394 148.845 52.5394 148.785 52.53 148.725C52.493 148.693 52.453 148.667 52.41 148.645ZM51 155.695L47 154.365L51.06 149.765L51 155.695Z" fill-rule="evenodd" fill="#05397F">
</path>
<path d="M110.43 142.325C110.365 142.249 110.295 142.179 110.22 142.115C110.147 142.047 110.07 141.984 109.99 141.925C109.928 141.884 109.861 141.854 109.79 141.835C109.737 141.825 109.683 141.825 109.63 141.835C109.585 141.845 109.545 141.865 109.51 141.895L106.15 145.105L103 142.315L105.85 139.605C105.881 139.573 105.904 139.536 105.92 139.495C105.935 139.448 105.935 139.401 105.92 139.355C105.902 139.289 105.869 139.233 105.82 139.185C105.761 139.111 105.694 139.044 105.62 138.985C105.549 138.915 105.472 138.851 105.39 138.795L105.2 138.705L105 138.705C104.948 138.706 104.905 138.726 104.87 138.765L102.03 141.475L99.3 139.005L102.62 135.845C102.655 135.812 102.679 135.772 102.69 135.725C102.705 135.681 102.705 135.638 102.69 135.595C102.664 135.531 102.631 135.471 102.59 135.415L102.39 135.215C102.316 135.144 102.236 135.081 102.15 135.025C102.087 134.986 102.021 134.956 101.95 134.935C101.897 134.915 101.843 134.915 101.79 134.935C101.745 134.951 101.705 134.974 101.67 135.005L97.67 138.835C97.6198 138.884 97.5793 138.941 97.5484 139.005C97.5175 139.068 97.4981 139.135 97.49 139.205C97.4931 139.295 97.5156 139.381 97.5577 139.462C97.5998 139.542 97.6572 139.61 97.73 139.665L105.56 146.665C105.625 146.737 105.702 146.79 105.791 146.825C105.881 146.86 105.974 146.873 106.07 146.865C106.218 146.849 106.348 146.793 106.46 146.695L110.53 142.815C110.563 142.781 110.587 142.741 110.6 142.695C110.614 142.645 110.614 142.595 110.6 142.545C110.568 142.453 110.511 142.379 110.43 142.325Z" fill-rule="evenodd" fill="#05397F">
</path>
<path d="M117.69 133.604C117.631 133.566 117.567 133.536 117.5 133.514L117.01 133.384L114.19 132.744C113.87 132.674 113.57 132.614 113.3 132.574C113.047 132.556 112.793 132.556 112.54 132.574C112.315 132.576 112.091 132.6 111.87 132.644C111.664 132.698 111.467 132.774 111.28 132.874C111.389 132.55 111.456 132.216 111.48 131.874C111.501 131.566 111.471 131.262 111.39 130.964C111.31 130.663 111.173 130.39 110.98 130.144C110.753 129.866 110.49 129.63 110.19 129.434C109.881 129.221 109.548 129.058 109.19 128.944C108.836 128.844 108.476 128.814 108.11 128.854C107.732 128.894 107.372 128.998 107.03 129.164C106.668 129.364 106.335 129.604 106.03 129.884L105.66 130.264L105.19 130.834L103.67 132.764C103.626 132.818 103.593 132.877 103.57 132.942C103.548 133.008 103.538 133.075 103.54 133.144C103.547 133.189 103.56 133.232 103.577 133.274C103.595 133.316 103.617 133.356 103.644 133.392C103.671 133.428 103.702 133.461 103.737 133.49C103.772 133.52 103.809 133.544 103.85 133.564L112.99 139.684C113.033 139.693 113.077 139.693 113.12 139.684C113.173 139.696 113.227 139.696 113.28 139.684L113.47 139.534L113.72 139.254C113.797 139.158 113.864 139.055 113.92 138.944C113.969 138.88 114.005 138.81 114.03 138.734C114.04 138.684 114.04 138.634 114.03 138.584C114.015 138.542 113.989 138.508 113.95 138.484L109.74 135.674L110.38 134.864C110.57 134.613 110.8 134.406 111.07 134.244C111.314 134.11 111.574 134.023 111.85 133.984C112.14 133.939 112.43 133.939 112.72 133.984C113.057 134.026 113.39 134.086 113.72 134.164L116.72 134.884L116.93 134.884C116.99 134.898 117.05 134.898 117.11 134.884L117.31 134.734L117.56 134.444C117.67 134.304 117.75 134.184 117.81 134.094C117.855 134.023 117.888 133.946 117.91 133.864C117.931 133.818 117.931 133.771 117.91 133.724C117.886 133.687 117.854 133.658 117.815 133.636C117.776 133.615 117.735 133.604 117.69 133.604ZM110.05 132.844C109.923 133.177 109.747 133.48 109.52 133.754L108.59 134.934L105.26 132.704L106.07 131.704C106.217 131.504 106.377 131.314 106.55 131.134C106.667 131.007 106.797 130.894 106.94 130.794C107.109 130.656 107.297 130.551 107.503 130.479C107.709 130.407 107.921 130.372 108.14 130.374C108.351 130.388 108.556 130.431 108.755 130.502C108.954 130.574 109.139 130.671 109.31 130.794C109.537 130.942 109.731 131.125 109.89 131.344C109.964 131.445 110.023 131.554 110.068 131.671C110.112 131.789 110.139 131.91 110.15 132.034C110.179 132.312 110.145 132.582 110.05 132.844Z" fill-rule="evenodd" fill="#05397F">
</path>
<path d="M59.3204 150.274C59.2479 150.231 59.1712 150.198 59.0904 150.174L58.7104 150.084C58.587 150.076 58.4637 150.076 58.3404 150.084L58.0804 150.084C58.027 150.066 57.9737 150.066 57.9204 150.084C57.8876 150.115 57.8642 150.152 57.8504 150.194L55.6204 160.804C55.6053 160.844 55.6053 160.884 55.6204 160.924C55.6468 160.971 55.6835 161.008 55.7304 161.034L55.9704 161.124C56.0934 161.17 56.2201 161.2 56.3504 161.214C56.4804 161.222 56.6104 161.222 56.7404 161.214L57.0004 161.214C57.0569 161.211 57.1069 161.191 57.1504 161.154C57.1825 161.124 57.2025 161.088 57.2104 161.044L59.4504 150.464C59.4607 150.421 59.4607 150.378 59.4504 150.334C59.413 150.302 59.3697 150.282 59.3204 150.274Z" fill-rule="evenodd" fill="#05397F">
</path>
<path d="M97.2401 140.374C97.2107 140.27 97.1707 140.17 97.1201 140.074C97.0873 140.011 97.0373 139.967 96.9701 139.944C96.8839 139.939 96.8039 139.959 96.7301 140.004C96.5944 140.067 96.4644 140.141 96.3401 140.224L95.9801 140.474C95.9098 140.527 95.8465 140.587 95.7901 140.654C95.756 140.698 95.7393 140.748 95.7401 140.804C95.7367 140.857 95.7367 140.911 95.7401 140.964L98.8401 150.494L90.0801 144.594C90.0316 144.559 89.9783 144.536 89.9201 144.524C89.8668 144.508 89.8135 144.508 89.7601 144.524C89.6819 144.542 89.6085 144.572 89.5401 144.614C89.4133 144.672 89.2933 144.742 89.1801 144.824C89.0101 144.934 88.8701 145.024 88.7701 145.104C88.6938 145.158 88.6371 145.228 88.6001 145.314C88.5889 145.348 88.5879 145.382 88.5969 145.416C88.606 145.451 88.6237 145.48 88.6501 145.504C88.7236 145.586 88.8069 145.656 88.9001 145.714L98.6802 152.154L98.8001 152.214L98.9302 152.214L99.0802 152.214L99.2601 152.134C99.3409 152.102 99.4174 152.062 99.4902 152.014C99.594 151.957 99.6941 151.893 99.7902 151.824C99.9402 151.734 100.06 151.644 100.16 151.574C100.237 151.512 100.311 151.445 100.38 151.374C100.422 151.323 100.452 151.267 100.47 151.204C100.48 151.141 100.48 151.077 100.47 151.014L97.2401 140.374Z" fill-rule="evenodd" fill="#05397F">
</path>
<path d="M83.9 147.854C83.8859 147.814 83.8626 147.781 83.83 147.754C83.7832 147.726 83.7332 147.706 83.68 147.694C83.6001 147.684 83.52 147.684 83.44 147.694L83.09 147.774C82.94 147.774 82.82 147.864 82.73 147.894C82.6552 147.926 82.5852 147.966 82.52 148.014C82.4769 148.044 82.4469 148.084 82.43 148.134C82.4197 148.174 82.4197 148.214 82.43 148.254L84.37 154.084C84.51 154.514 84.66 154.974 84.82 155.444C84.98 155.914 85.14 156.374 85.3 156.804L84.61 156.154L83.9 155.494L83.16 154.814L82.38 154.124L78 150.214C77.8666 150.09 77.7266 149.973 77.58 149.864C77.4682 149.786 77.3483 149.722 77.22 149.674C77.1001 149.649 76.98 149.649 76.86 149.674C76.7072 149.685 76.5572 149.712 76.41 149.754L75.67 149.964C75.592 149.984 75.5196 150.016 75.4526 150.06C75.3857 150.105 75.3282 150.16 75.28 150.224C75.2582 150.265 75.2416 150.308 75.2303 150.352C75.219 150.398 75.2133 150.443 75.2133 150.489C75.2133 150.535 75.219 150.581 75.2303 150.626C75.2416 150.671 75.2582 150.714 75.28 150.754L78.58 160.664C78.5872 160.709 78.6106 160.742 78.65 160.764C78.6885 160.804 78.7352 160.824 78.79 160.824C78.87 160.833 78.95 160.833 79.03 160.824C79.1534 160.813 79.2734 160.786 79.39 160.744C79.5115 160.718 79.6282 160.678 79.7401 160.624C79.8144 160.596 79.8844 160.56 79.95 160.514C79.995 160.484 80.0283 160.444 80.05 160.394C80.0599 160.354 80.0599 160.314 80.05 160.274L77.9 153.794L77.48 152.554C77.34 152.144 77.19 151.734 77.05 151.344C77.32 151.614 77.61 151.904 77.93 152.194L78.84 153.024L84.48 158.004C84.6438 158.159 84.8171 158.302 85 158.434C85.1329 158.536 85.2762 158.619 85.43 158.684C85.5556 158.732 85.6856 158.756 85.82 158.754C85.9622 158.744 86.1021 158.721 86.2401 158.684L86.7401 158.544C86.8179 158.521 86.8913 158.488 86.9601 158.444C87.0297 158.398 87.0898 158.341 87.14 158.274C87.1913 158.206 87.2214 158.13 87.23 158.044C87.2533 157.944 87.2533 157.844 87.23 157.744L83.9 147.854Z" fill-rule="evenodd" fill="#05397F">
</path>
<path d="M73.3701 150.364C73.3309 150.326 73.2842 150.303 73.2301 150.294C73.1468 150.285 73.0635 150.285 72.9801 150.294L72.6001 150.294C72.469 150.302 72.339 150.319 72.2101 150.344C72.1244 150.359 72.0411 150.382 71.9601 150.414C71.9121 150.433 71.8721 150.463 71.8401 150.504C71.831 150.544 71.831 150.584 71.8401 150.624L72.3601 157.484C72.4068 157.93 72.3735 158.37 72.2601 158.804C72.1621 159.174 71.9921 159.507 71.7501 159.804C71.5 160.08 71.2033 160.29 70.8601 160.434C70.4619 160.593 70.0486 160.683 69.6201 160.704C69.1931 160.738 68.7731 160.698 68.3601 160.584C67.9867 160.488 67.6533 160.315 67.3601 160.064C67.0633 159.811 66.8399 159.504 66.6901 159.144C66.5089 158.712 66.4055 158.262 66.3801 157.794L65.8501 151.004C65.8652 150.964 65.8652 150.924 65.8501 150.884C65.8501 150.884 65.7801 150.824 65.7201 150.804L65.4701 150.804C65.3401 150.794 65.2101 150.794 65.0801 150.804C64.9501 150.795 64.8201 150.795 64.6901 150.804C64.6072 150.817 64.5272 150.841 64.4501 150.874C64.3953 150.887 64.3519 150.917 64.3201 150.964C64.3098 151.004 64.3098 151.044 64.3201 151.084L64.8501 158.084C64.883 158.711 65.0363 159.308 65.3101 159.874C65.4256 160.12 65.5678 160.349 65.7367 160.562C65.9057 160.775 66.0968 160.966 66.3101 161.134C66.7583 161.463 67.2517 161.696 67.7901 161.834C68.4025 161.978 69.0225 162.028 69.6501 161.984C70.338 161.951 71.0047 161.814 71.6501 161.574C71.9151 161.471 72.1657 161.34 72.4018 161.181C72.638 161.022 72.8541 160.84 73.0501 160.634C73.2404 160.435 73.4048 160.216 73.5434 159.977C73.682 159.739 73.7909 159.488 73.8701 159.224C74.0553 158.62 74.1186 158.003 74.0601 157.374L73.5401 150.534C73.5364 150.513 73.5295 150.493 73.5195 150.474C73.5096 150.455 73.497 150.437 73.4818 150.422C73.4666 150.407 73.4495 150.394 73.4304 150.385C73.4114 150.375 73.3913 150.368 73.3701 150.364Z" fill-rule="evenodd" fill="#05397F">
</path>
<path d="M87.5204 146.004C87.5005 145.964 87.4705 145.934 87.4304 145.914C87.377 145.897 87.3237 145.897 87.2704 145.914C87.1846 145.924 87.1013 145.944 87.0204 145.974C86.8962 146.006 86.7762 146.05 86.6604 146.104L86.3404 146.274C86.2659 146.318 86.1959 146.368 86.1304 146.424C86.0889 146.46 86.0589 146.503 86.0404 146.554C86.0246 146.598 86.0246 146.641 86.0404 146.684L91.1804 156.374C91.2003 156.414 91.2303 156.444 91.2704 156.464C91.3237 156.486 91.377 156.486 91.4304 156.464C91.516 156.459 91.5994 156.442 91.6804 156.414C91.8059 156.382 91.9259 156.335 92.0404 156.274C92.1615 156.229 92.2749 156.169 92.3804 156.094C92.4528 156.056 92.5194 156.009 92.5804 155.954C92.6304 155.954 92.6604 155.864 92.6604 155.824C92.6744 155.781 92.6744 155.738 92.6604 155.694L87.5204 146.004Z" fill-rule="evenodd" fill="#05397F">
</path>
<path d="M123.4 120.874L112.4 117.184C112.354 117.169 112.307 117.169 112.26 117.184C112.209 117.203 112.166 117.233 112.13 117.274C112.078 117.337 112.032 117.404 111.99 117.474C111.929 117.579 111.879 117.689 111.84 117.804C111.793 117.911 111.756 118.021 111.73 118.134C111.722 118.211 111.722 118.287 111.73 118.364C111.718 118.417 111.718 118.471 111.73 118.524C111.761 118.557 111.798 118.58 111.84 118.594L122.84 122.284C122.884 122.299 122.927 122.299 122.97 122.284C123.025 122.271 123.068 122.241 123.1 122.194C123.159 122.136 123.206 122.069 123.24 121.994C123.306 121.893 123.359 121.787 123.4 121.674C123.445 121.56 123.482 121.443 123.51 121.324C123.518 121.244 123.518 121.164 123.51 121.084C123.532 121.037 123.532 120.991 123.51 120.944C123.483 120.907 123.446 120.883 123.4 120.874Z" fill-rule="evenodd" fill="#05397F">
</path>
<path d="M120.101 125.004C119.927 124.818 119.735 124.653 119.524 124.509C119.313 124.366 119.088 124.248 118.851 124.154C118.459 123.968 118.046 123.871 117.611 123.864C117.231 123.85 116.861 123.904 116.501 124.024C116.15 124.147 115.816 124.307 115.501 124.504C115.191 124.704 114.881 124.924 114.591 125.144L113.731 125.814C113.466 126.023 113.182 126.203 112.881 126.354C112.614 126.494 112.33 126.584 112.031 126.624C111.9 126.638 111.769 126.637 111.638 126.621C111.507 126.606 111.38 126.577 111.256 126.533C111.131 126.49 111.013 126.434 110.901 126.365C110.789 126.296 110.686 126.216 110.591 126.124C110.434 125.98 110.32 125.806 110.251 125.604C110.184 125.388 110.164 125.168 110.191 124.944C110.22 124.664 110.304 124.4 110.441 124.154C110.577 123.867 110.757 123.61 110.981 123.384C111.162 123.194 111.359 123.02 111.571 122.864L112.071 122.534C112.172 122.478 112.258 122.404 112.331 122.314C112.346 122.274 112.346 122.234 112.331 122.194C112.314 122.144 112.284 122.104 112.241 122.074C112.185 122.028 112.125 121.988 112.061 121.954L111.791 121.824L111.521 121.724C111.461 121.718 111.401 121.718 111.341 121.724C111.294 121.716 111.248 121.716 111.201 121.724L111.021 121.724C110.886 121.777 110.762 121.85 110.651 121.944C110.468 122.075 110.294 122.218 110.131 122.374C109.954 122.556 109.788 122.746 109.631 122.944C109.478 123.153 109.345 123.373 109.231 123.604C109.011 124.016 108.868 124.452 108.801 124.914C108.728 125.329 108.748 125.739 108.861 126.144C108.976 126.523 109.17 126.856 109.441 127.144C109.76 127.478 110.133 127.732 110.561 127.904C110.961 128.088 111.381 128.188 111.821 128.204C112.225 128.202 112.618 128.136 113.001 128.004C113.353 127.887 113.686 127.73 114.001 127.534C114.318 127.345 114.622 127.135 114.911 126.904L115.771 126.244C116.031 126.038 116.308 125.858 116.601 125.704C116.868 125.564 117.152 125.474 117.451 125.434C117.606 125.419 117.761 125.424 117.916 125.449C118.07 125.475 118.218 125.52 118.361 125.584C118.631 125.69 118.864 125.85 119.061 126.064C119.245 126.248 119.372 126.464 119.441 126.714C119.493 126.974 119.493 127.234 119.441 127.494C119.395 127.8 119.302 128.09 119.161 128.364C118.986 128.73 118.763 129.064 118.491 129.364C118.268 129.586 118.031 129.793 117.781 129.984C117.596 130.124 117.403 130.251 117.201 130.364C117.078 130.42 116.978 130.503 116.901 130.614C116.886 130.654 116.886 130.694 116.901 130.734C116.906 130.784 116.926 130.828 116.961 130.864C117.016 130.914 117.076 130.957 117.141 130.994L117.441 131.144C117.585 131.21 117.735 131.257 117.891 131.284C118.001 131.31 118.111 131.31 118.221 131.284C118.368 131.234 118.504 131.164 118.631 131.074C118.834 130.938 119.024 130.784 119.201 130.614C119.434 130.408 119.644 130.182 119.831 129.934C120.053 129.655 120.243 129.355 120.401 129.034C120.641 128.574 120.801 128.088 120.881 127.574C120.957 127.112 120.93 126.655 120.801 126.204C120.736 125.978 120.644 125.764 120.526 125.56C120.407 125.358 120.266 125.172 120.101 125.004Z" fill-rule="evenodd" fill="#05397F">
</path>
<path d="M127 103.254C126.957 103.242 126.913 103.242 126.87 103.254L122.38 102.964L115.75 99.354C115.649 99.2953 115.542 99.2486 115.43 99.214C115.4 99.1989 115.368 99.1913 115.335 99.1913C115.302 99.1913 115.27 99.1989 115.24 99.214C115.179 99.2828 115.142 99.3628 115.13 99.454C115.099 99.6161 115.079 99.7794 115.07 99.944C115.061 100.067 115.061 100.191 115.07 100.314C115.062 100.391 115.062 100.467 115.07 100.544C115.088 100.598 115.118 100.645 115.16 100.684C115.208 100.721 115.261 100.747 115.32 100.764L118.72 102.554L119.72 103.044C120.06 103.214 120.4 103.374 120.72 103.524L119.59 103.884C119.21 104.014 118.85 104.124 118.51 104.254L114.89 105.584C114.831 105.601 114.778 105.627 114.73 105.664C114.677 105.693 114.64 105.737 114.62 105.794C114.59 105.879 114.567 105.965 114.55 106.054C114.541 106.191 114.541 106.327 114.55 106.464C114.541 106.617 114.541 106.771 114.55 106.924C114.551 107.011 114.574 107.091 114.62 107.164C114.644 107.19 114.673 107.208 114.707 107.219C114.741 107.23 114.775 107.231 114.81 107.224C114.931 107.205 115.047 107.172 115.16 107.124L122.27 104.394L126.76 104.684C126.803 104.7 126.847 104.7 126.89 104.684C126.94 104.658 126.973 104.618 126.99 104.564C127.024 104.494 127.047 104.421 127.06 104.344C127.093 104.226 127.113 104.106 127.12 103.984C127.13 103.864 127.13 103.744 127.12 103.624C127.128 103.544 127.128 103.464 127.12 103.384C127.113 103.353 127.098 103.326 127.077 103.303C127.056 103.28 127.03 103.263 127 103.254Z" fill-rule="evenodd" fill="#05397F">
</path>
<path d="M125.501 113.644C125.467 113.612 125.427 113.592 125.381 113.584L115.021 111.584L115.731 108.494C115.747 108.451 115.747 108.407 115.731 108.364C115.707 108.317 115.673 108.277 115.631 108.244C115.574 108.198 115.511 108.165 115.441 108.144L115.141 108.074L114.831 108.074C114.751 108.063 114.671 108.063 114.591 108.074C114.541 108.086 114.494 108.106 114.451 108.134C114.423 108.17 114.403 108.21 114.391 108.254L112.621 115.894C112.605 115.937 112.605 115.981 112.621 116.024C112.643 116.074 112.676 116.114 112.721 116.144C112.787 116.185 112.857 116.219 112.931 116.244C113.028 116.281 113.128 116.307 113.231 116.324L113.541 116.324L113.751 116.324C113.803 116.318 113.85 116.298 113.891 116.264C113.925 116.231 113.949 116.191 113.961 116.144L114.671 113.054L125.001 115.004L125.141 115.004C125.191 114.981 125.227 114.944 125.251 114.894C125.295 114.825 125.332 114.751 125.361 114.674C125.405 114.563 125.441 114.45 125.471 114.334C125.478 114.214 125.478 114.094 125.471 113.974C125.481 113.897 125.481 113.821 125.471 113.744C125.487 113.713 125.497 113.679 125.501 113.644Z" fill-rule="evenodd" fill="#05397F">
</path>
<path d="M54.62 15.7441L54.67 15.6541L54.72 15.5541L54.75 15.4541L54.78 15.3341L54.52 15.8641L54.56 15.8241L54.62 15.7441Z" fill-rule="evenodd" fill="#05397F">
</path>
<path d="M54.38 15.904L54.47 15.914L54.52 15.864L54.3 15.884L54.3 15.894L54.38 15.904Z" fill-rule="evenodd" fill="#05397F">
</path>
<path d="M54.83 14.9641L54.83 14.9141L54.81 15.0441L54.82 15.0441L54.83 14.9641Z" fill-rule="evenodd" fill="#05397F">
</path>
<path d="M52.35 15.1641L52.41 15.1941L52.47 15.2141L52.31 15.0241L52.3 15.0341L52.31 15.1041L52.35 15.1641Z" fill-rule="evenodd" fill="#05397F">
</path>
<path d="M44.18 13.1141L44.18 13.1641L44.26 13.2741L44.37 13.3541L44.37 13.4841L44.45 13.5741L44.5 13.5741L44.59 13.6641L44.65 13.6641L44.82 13.6641L44.9 13.7141L45.01 13.7141L45.08 13.7141L45.23 13.8041L45.32 13.8041L45.59 13.8041L45.68 13.8041L46 14.0041L46.08 14.0041L46.17 14.0041L46.24 14.0041L46.31 14.0041L46.37 14.0041L46.37 13.9541L46.37 13.5641L46.37 13.4741L46.37 13.3841L46.37 13.3041L46.37 13.2341L46.37 13.1641L46.31 13.1141L46.25 13.1141L46.18 13.1141L46.12 13.1141L45.93 13.1141L45.87 12.9741L45.73 12.8741L45.66 12.8741L45.59 12.8741L45.53 12.8741L45.21 12.8741L45.12 12.8741L44.95 12.8741L44.79 12.8741L44.7 12.8741L44.53 12.8741L44.53 12.9841L44.53 13.1141L44.53 13.2441C44.5189 13.2741 44.5189 13.3041 44.53 13.3341C44.5318 13.3607 44.5318 13.3874 44.53 13.4141C44.53 13.4141 44.17 13.1041 44.18 13.1141Z" fill-rule="evenodd" fill="#05397F">
</path>
<path d="M46.46 15.364L46.37 15.364L45.79 15.604L45.79 15.664L45.79 15.724C45.7642 15.771 45.7476 15.821 45.74 15.874L45.74 16.124L45.74 16.214C45.74 16.214 45.74 16.214 45.74 16.294C45.7343 16.3207 45.7343 16.3474 45.74 16.374L45.74 16.614L45.74 17.004L45.74 17.114C45.74 17.254 45.8 17.394 45.82 17.544C45.84 17.694 45.82 17.644 45.82 17.684C45.8151 17.734 45.8151 17.784 45.82 17.834L45.82 18.244L45.82 18.304C45.82 18.374 45.82 18.444 45.82 18.514C45.8342 18.6107 45.8342 18.7074 45.82 18.804L45.9 19.094C46.08 19.724 46.27 20.354 46.48 20.984L46.69 21.574L47.1 22.574L47.32 23.044C47.45 23.254 47.56 23.484 47.68 23.704L47.74 23.804L48.09 24.364L48.09 24.424L48.14 24.484L48.25 24.594L48.3 24.594L48.36 24.594L48.42 24.594L48.49 24.594L48.56 24.594L48.64 24.594L48.71 24.594L49.07 24.594L49.24 24.594L49.51 24.184L49.6 24.014L49.68 23.844L49.68 23.084L49.68 22.334L49.68 22.404L49.56 22.174L49.4 21.954L49.32 21.864L49.17 21.984L49.07 22.084L48.89 22.084L48.79 22.084L48.7 22.084L48.62 22.034L48.54 22.034L48.46 21.964L48.4 21.894L48.33 21.824L48 21.494L47.94 21.404L47.84 21.224L47.74 21.044L47.63 20.734L47.54 20.434L47.47 20.124L47.41 19.414L47.41 19.234C47.31 18.754 47.21 18.234 47.11 17.764C47.11 17.614 47.05 17.424 47.01 17.234L47.01 16.994L47.01 16.914L47.01 16.854L47.01 16.654L47.01 16.454L47.01 16.394L47.01 16.204L47.01 16.154C46.9624 15.9974 46.8991 15.8474 46.82 15.704C46.82 15.634 46.75 15.574 46.72 15.494L46.59 15.494L46.51 15.494L46.46 15.364Z" fill-rule="evenodd" fill="#05397F">
</path>
<path d="M47.91 13.0041L47.97 13.2641L48.02 13.4241L48.11 13.6541L48.18 13.7941L48.18 13.8541L48.18 13.9141L48.23 13.9141L48.34 13.9141L48.48 13.9141L48.64 13.9141L48.98 13.9141L49.86 13.2341L49.91 13.2341L49.99 13.2341L50.16 13.2341L50.26 13.2341L50.4 13.3241L50.2 16.0241C50.2 16.0941 50.2 16.1841 50.2 16.2641L50.2 16.5041C50.2 16.6041 50.2 16.7041 50.2 16.8041L50.2 17.1241C50.2 17.3341 50.2 17.5441 50.2 17.7541C50.1887 17.966 50.1621 18.176 50.12 18.3841L50.12 18.5041C50.1243 18.5541 50.1243 18.6041 50.12 18.6541C50.1062 18.7018 50.0895 18.7484 50.07 18.7941L50.01 18.9341L49.95 19.0541L49.87 19.1741L49.81 19.2541L49.74 19.3441C49.7115 19.3623 49.6882 19.3856 49.67 19.4141L49.59 19.4841L49.48 19.5641L49.37 19.6541L49.26 19.7641L48.82 20.1641C48.8154 20.2724 48.8421 20.3724 48.9 20.4641C48.9569 20.5582 49.0335 20.6315 49.13 20.6841L49.19 20.6841L49.25 20.6841L49.48 20.6841L49.56 20.6841L49.66 20.6841L49.79 20.6841L50.12 20.6841L50.25 20.6841L50.35 20.6841L50.43 20.6841L50.51 20.7341L50.58 20.8041L50.91 21.4841L51.23 22.1741L51.3 22.3041C51.3 22.3041 51.3 22.3741 51.36 22.4041L51.43 22.4941L51.53 22.6041L52 23.0041L52.13 23.0941L52.29 23.1841L52.46 23.2641L52.54 23.2641L52.82 23.2641L53.02 23.2641L53.19 23.2641L53.35 23.2641L53.89 23.1241L54.3 23.0241L54.91 23.0241L55.23 23.2941L55.58 23.5741C55.6433 23.5841 55.7067 23.5841 55.77 23.5741L56 23.5041L56.11 23.4441L56.23 23.3741L56.36 23.2741L56.47 23.1741C56.59 22.7941 56.71 22.3941 56.83 21.9941L57.01 21.4441L57.12 21.0741C57.21 20.7941 57.29 20.5141 57.38 20.2341C57.38 20.2341 57.38 20.2341 57.38 20.1641C57.38 20.0941 57.38 20.1641 57.38 20.0941L57.38 20.0041C57.38 20.0041 57.38 19.9541 57.38 19.9341C57.3844 19.9141 57.3844 19.8941 57.38 19.8741L57.38 19.8041L57.38 19.7441C57.3691 19.7166 57.3524 19.6933 57.33 19.6741C57.3329 19.6541 57.3329 19.6341 57.33 19.6141L57.26 19.5641L56.68 19.1541C56.68 18.8141 56.59 18.4741 56.54 18.1541L56.39 17.1541L56.49 16.7241L56.59 16.3141L58.26 15.6941L58.87 15.4741L59.37 15.1141L59.46 14.7941L59.22 14.3741L59.22 14.3241L59.16 14.3241L59.09 14.3241L59.01 14.3241L58.92 14.3241L58.75 14.3241L58.19 14.4941L57.98 14.5541L56.98 14.9541L56.51 15.2141L56.09 14.9941L55.73 13.9141L55.28 13.0041L55.21 12.8941L55.13 12.7941L55.04 12.6941L55 12.6241L54.91 12.5641L54.82 12.5041L54.74 12.4541L54.65 12.4541L54.55 12.4041L54.47 12.4041L54.4 12.3441L54.35 12.3441L54.3 12.3441L54.24 12.3441L53.87 12.3441L53.79 12.3441L53.7 12.3441L53.61 12.3441L53.51 12.3441L53.41 12.4041L53.28 12.4741L52.77 12.3641L53.28 10.6441L53.28 10.3141L53.28 10.0041C53.28 10.0041 53.28 9.91405 53.28 9.87405L53.28 9.75405L53.28 9.56405C53.2845 9.51405 53.2845 9.46405 53.28 9.41405L53.28 9.27405L53 9.20405L52.93 9.14405L52.85 9.14405L52.76 9.00405L52.67 9.00405L52.58 9.00405L52.37 9.00405L52.26 9.00405L52.15 9.00405L52.07 9.00405L51.99 9.00405L51.92 9.05405L51.85 9.10405L51.78 9.16405L51.71 9.22405L51.65 9.28405L51.65 9.35405L50.53 10.9741L49.94 11.5741L49.83 11.5741L49.58 11.5741L49.51 11.5741L49.45 11.5741L49.4 11.4941L49.74 9.82405C49.755 9.63738 49.755 9.45072 49.74 9.26405C49.7205 9.07899 49.6905 8.89566 49.65 8.71405L49.56 8.31405C49.56 8.17405 49.49 8.04405 49.46 7.91405L49.46 7.79405L49.32 7.70405L49.25 7.65405L49.08 7.65405L48.92 7.65405L48.8 7.72405L48.68 7.79405L48.36 8.00405L48.11 8.58405L47.88 10.1641C47.88 10.8441 47.88 11.5241 47.88 12.1641L47.88 12.4641L47.94 12.9141L47.91 13.0041ZM55 17.0641L55.06 17.0641L55.11 17.1341L55.11 17.2041L55.11 17.2841L55.11 17.3641L55.11 17.4441L55.11 17.5341C55.11 17.6741 55.18 17.8141 55.21 17.9441C55.24 18.0741 55.28 18.2241 55.32 18.3541C55.3151 18.4141 55.3151 18.4741 55.32 18.5341L55.48 18.9141C55.4752 18.9308 55.4752 18.9474 55.48 18.9641L55.48 19.0241L55.53 19.1441L55.53 19.2241L55.53 19.3841C55.5348 19.4308 55.5348 19.4774 55.53 19.5241L55.53 19.6841L55.53 19.7741L55.44 19.8841L55.44 19.9441L55.44 19.9941L55.44 20.0541L55.44 20.1141C55.44 20.1641 55.44 20.2141 55.44 20.2641L55.44 20.4341C55.4344 20.4574 55.4344 20.4808 55.44 20.5041C55.4444 20.5274 55.4444 20.5508 55.44 20.5741L55.44 20.6341L55.44 20.6841L55.39 20.6841L55.29 20.7441L55.21 20.7441L55.13 20.7441L55.01 20.7441L54.73 20.8341L54.55 20.9141L53.83 21.1441L53.73 21.1441L53.64 21.1441L53.55 21.1441L53.38 21.1441L53.31 21.1441L53.24 21.1441L53.19 21.0941L53.19 21.0441L53.19 20.9741L53.11 20.8341C52.9407 20.4536 52.7973 20.0636 52.68 19.6641C52.5655 19.2826 52.4721 18.8959 52.4 18.5041L52.4 18.4241L52.4 18.3641L52.4 18.3041L52.45 18.3041L52.51 18.2541L52.58 18.2541L52.65 18.2541L52.73 18.2541L52.8 18.2541L52.88 18.2541L52.97 18.2541L53.31 18.2541L53.31 18.2541C53.31 18.2541 53.31 18.3141 53.31 18.3541C53.3461 18.4814 53.3928 18.6048 53.45 18.7241L53.73 19.3641L53.79 19.4341L53.86 19.5141L53.86 19.5941L54.05 19.6641L54.25 19.7441L54.34 19.6441L54.64 19.5141L54.64 19.4641C54.6587 19.3828 54.6821 19.3028 54.71 19.2241L54.71 19.1741L54.65 19.1041L54.56 19.1041L54.37 19.0041L54.29 19.0041C54.1455 18.8717 54.0254 18.72 53.9297 18.5491C53.834 18.3781 53.7674 18.1964 53.73 18.0041L53.73 17.8941L53.73 17.7641C53.7243 17.7374 53.7243 17.7108 53.73 17.6841L53.73 17.6041L53.73 17.5541L53.78 17.5541L53.84 17.5541L53.93 17.5041L54.02 17.5041L54.02 17.4541C54.02 17.4541 54.02 17.4541 54.07 17.4541L54.13 17.4541L54.36 17.4541L54.46 17.4541L55 17.4541L55 17.0641ZM52.29 15.0041L52.29 14.9441L52.35 14.8841L52.49 14.7441L52.57 14.7441L52.74 14.5541L52.81 14.4941L52.88 14.4241L52.94 14.4241L53.13 14.2541L53.46 14.0141L53.54 13.9441L53.61 13.9441L53.73 13.9441L53.85 13.9441L53.95 13.9941L54.04 14.0641L54.23 14.2141L54.34 14.3141L54.34 14.4141C54.34 14.4941 54.43 14.5741 54.48 14.6541L54.58 14.8541L54.58 14.9341L54.58 15.0041L54.58 15.0941L54.58 15.3741L54.58 15.4941L54.58 15.6141L54.58 15.7141L54.52 15.8041L54.46 15.8841L54.36 15.9841L54.24 15.9841L54.16 15.9841L54.09 15.9841L54.01 15.9841L54 15.7641L53.58 15.4741L53.52 15.4741L53.47 15.4741L53.39 15.4741L53 15.3441L52.54 15.2741L52.46 15.2741L52.39 15.2741L52.33 15.2741L52.27 15.2141L52.27 15.0041L52.29 15.0041ZM51.71 16.8441L51.71 16.7541L51.71 16.7541C51.709 16.7374 51.709 16.7207 51.71 16.7041L51.71 16.7041L51.8 16.7041L51.97 16.7041L52.12 16.7041L52.27 16.7041L52.34 16.7041L52.41 16.7041L52.63 16.7041L52.74 16.8641L52.74 16.9841L52.74 17.1041L52.74 17.2141L52.74 17.3141L52.8 17.0041L52.72 17.0841C52.6539 17.1427 52.6172 17.216 52.61 17.3041C52.61 17.3641 52.61 17.4041 52.43 17.4141L52.17 17.4141L52 17.3841L51.92 17.2941L51.87 17.1941C51.87 17.0941 51.81 16.9841 51.77 16.8841L51.71 16.8441Z" fill-rule="evenodd" fill="#05397F">
</path>
<path d="M73.05 22.2441L73.12 22.2941C73.21 22.3441 73.3 22.3741 73.39 22.4141L73.54 22.4141L73.87 22.4141L74.29 22.4141L74.67 22.4141L74.77 22.4141L74.83 22.4141C74.86 22.4098 74.89 22.4098 74.92 22.4141L75 22.4141L75.13 22.3541L75.21 22.2741C75.2492 22.24 75.2859 22.2033 75.32 22.1641L75.4 22.0941L75.48 22.0941L75.59 22.0441L75.69 22.0441L75.77 22.0441L75.83 21.9741L75.9 21.9141L76.82 21.1241L76.89 21.0641C77.01 20.9641 77.12 20.8741 77.23 20.7641L77.29 20.6941L78.12 19.7441L78.21 19.6541L78.29 19.5641L78.29 19.4941L78.29 19.4241C78.3321 19.3853 78.3687 19.342 78.4 19.2941L78.4 19.1741L78.66 19.1741L78.83 19.1741L78.97 19.2241L79.09 19.2941L79.18 19.3841L79.25 19.4941L79.25 19.6141L79.25 19.7441L79.25 19.8741C79.25 20.0041 79.25 20.1241 79.25 20.2541L80 20.0041L80 20.1541L80 20.3141L80 20.4541L80 20.5441L80.07 20.8141C80.13 21.0741 80.2 21.3341 80.26 21.5941C80.32 21.8541 80.39 22.1641 80.46 22.4441L80.52 22.6641L80.58 22.8841L80.72 23.3141L80.83 23.5841L80.95 23.8341L81.02 23.9541L81.08 24.0641L81.15 24.1741L81.23 24.2641L81.31 24.3541L81.39 24.4341L81.47 24.5041L81.55 24.5741L81.76 24.7241L81.97 24.8841L82.14 25.0341L82.32 25.1841L82.52 25.3241L82.73 25.4641L82.95 25.5941L83.18 25.7141L83.63 25.9041L83.9 26.0041L84.01 26.0041L84.1 26.0041C84.13 25.9986 84.16 25.9986 84.19 26.0041L84.65 25.5041C84.6733 25.4976 84.6967 25.4976 84.72 25.5041L84.78 25.5041L84.73 25.4541L84.66 25.4541L84.58 25.3941L84.48 25.3241L84.18 25.0641L83.96 24.8641L83.8 24.6841C83.74 24.6841 83.69 24.5741 83.63 24.5141L83.4 24.2541L83.18 24.0041L82.97 23.7441L82.76 23.4841C82.64 23.3341 82.53 23.1741 82.42 23.0141C82.3037 22.859 82.2003 22.6956 82.11 22.5241C82.0714 22.4592 82.0481 22.3892 82.04 22.3141L82.04 22.2341L82.04 22.1741L81.93 21.8641C81.9059 21.8349 81.8792 21.8082 81.85 21.7841L81.85 21.7241C81.8118 21.679 81.7818 21.629 81.76 21.5741C81.76 21.4441 81.69 21.3241 81.66 21.2041C81.63 21.0841 81.59 20.9641 81.56 20.8241C81.53 20.6841 81.56 20.8241 81.56 20.8241C81.5274 20.7808 81.5007 20.7342 81.48 20.6841L81.41 20.5741L81.41 20.5141L81.41 20.4441C81.41 20.2941 81.35 20.1441 81.33 19.9841L81.33 19.9341C81.3061 19.8388 81.2761 19.7455 81.24 19.6541C81.11 19.2741 80.94 18.9041 80.78 18.5341L80.68 18.3041C80.6848 18.2474 80.6848 18.1907 80.68 18.1341C80.6849 18.1041 80.6849 18.0741 80.68 18.0441L80.68 17.8841L80.98 16.9841C81.0177 16.9231 81.0611 16.8665 81.11 16.8141L81.11 16.7241L81.11 16.6241L81.18 16.5541L81.4 16.0041L81.49 16.0041L81.58 16.0041L81.67 16.0041L81.86 16.0041L82.06 16.0041L82.31 16.0541L82.53 16.0541L82.59 16.0541L82.84 16.0541L83.09 16.0541C83.15 16.0491 83.21 16.0491 83.27 16.0541L83.57 16.0541L83.75 16.0041L84.05 15.9141L84.33 15.8041L84.58 15.7241L84.67 15.6341L84.83 15.3341L84.83 15.2341L84.83 15.1241L84.83 15.0041L84.83 14.8941L84.83 14.7841L84.77 14.6741L84.7 14.5641L84.62 14.4641L84.52 14.3741L84.42 14.2941L84.31 14.2241L84.2 14.1641L84.09 14.1641L83.97 14.1641L83.72 14.1641L83.51 14.0041L83.29 14.0041L83.17 14.0041L83 14.0041L82.89 14.0041L82.81 13.9241L82.72 13.8241L82.72 13.7641L82.72 13.6941L82.72 13.4941C82.7455 13.4091 82.7755 13.3258 82.81 13.2441C82.81 13.1341 82.9 13.0341 82.94 12.9341L83.08 12.6341L83.15 12.4341C83.15 12.3241 83.24 12.2241 83.29 12.1141C83.3318 12.0035 83.3818 11.8969 83.44 11.7941L83.59 11.3341C83.65 11.1141 83.71 10.9041 83.76 10.6941L83.94 10.0641L83.94 9.97408C83.9521 9.85936 83.9721 9.74603 84 9.63408C83.9951 9.54408 83.9951 9.45408 84 9.36408L84 9.30408L84 9.25408L84 9.18408L83.92 9.00408C83.8261 8.83474 83.7228 8.67141 83.61 8.51408L83.53 8.40408L83.53 8.33408L82.99 8.33408L82.87 8.33408L82.77 8.33408L82.68 8.33408L82.59 8.33408L82.52 8.33408L82.45 8.40408L82.39 8.48408L82.33 8.57408L82.27 8.67408L82 8.74408L82 8.88408L82 9.00408C82 9.00408 82 9.06408 82 9.08408C82 9.10408 82 9.15408 82 9.18408L82 9.25408L82 9.40408L82.06 9.48408L82.06 9.58408L82.06 9.68408L82.06 10.2041L82.06 10.3641L82.06 10.5241L82.06 10.6841L81.96 11.0341L81.87 11.2941C81.87 11.3841 81.81 11.4641 81.78 11.5641C81.75 11.6641 81.69 11.8041 81.65 11.9141C81.61 12.0241 81.56 12.1441 81.51 12.2641L81.33 12.7041C81.26 12.8541 81.2 13.0041 81.14 13.1441L81.14 13.2441C81.08 13.3741 81.03 13.5041 80.98 13.6341L80.85 13.6841L80.41 13.8241L80 14.0041L79.82 14.0041L79.64 14.0041L79.57 14.0041L79.11 14.0041L79 14.0041L78.6 14.0041L78.42 14.0041L78.23 14.0041L78.01 14.0741L77.72 14.1841L77.63 14.1841L77.43 14.1841L77.29 14.1841L77.15 14.1341L77.01 14.1341C76.92 14.1236 76.83 14.1236 76.74 14.1341L76.55 14.1341L76.47 14.1341L76.19 14.1341L76.04 14.1341L75.92 14.1941L75.82 14.2841L75.74 14.3741L75.67 14.4741L75.67 14.5841L75.67 14.7141L75.67 14.8441L75.67 15.0041L75.67 15.1441L75.67 15.2741L75.67 15.4141L75.73 15.5441L75.8 15.6541L75.8 15.7241L75.8 15.7841L75.96 15.8941L76.1 15.9741L76.23 16.0341L76.36 16.0341L76.5 16.0341L76.65 16.0341L76.8 16.0341L77 16.0041L77.1 16.0041L77.58 16.0041L77.77 16.0041C77.88 16.014 77.99 16.014 78.1 16.0041L78.34 16.0041L78.44 16.0041L78.55 16.0041L78.7 16.0041L79 16.0041L79.23 15.9441L79.36 16.2041L79.36 16.2941L79.36 16.3941C79.36 16.3941 79.36 16.4641 79.36 16.5041L79.36 16.6341L79.36 16.7341C79.3209 16.7788 79.2842 16.8255 79.25 16.8741L79.1 17.0541L78.93 17.2341C78.83 17.3541 78.72 17.4741 78.61 17.5841C78.5 17.6941 78.25 17.9741 78.08 18.1741L78.08 18.2641L77.98 18.2641L77.91 18.3341L77.84 18.4041L77.69 18.5841L77.62 18.6741L77.52 18.7841L77.42 18.8741C77.3819 18.9256 77.3385 18.9723 77.29 19.0141L76.96 19.3241L76.63 19.6241C76.41 19.8241 76.18 20.0241 75.94 20.2141L75.86 20.2141C75.8243 20.2206 75.7943 20.2372 75.77 20.2641L75.68 20.3841L75.59 20.3841L75.46 20.4541L74.88 20.8041C74.6823 20.9192 74.4923 21.0459 74.31 21.1841L74.22 21.2541L74.16 21.3241L74.16 21.3841L74.08 21.3841L73.78 21.5541L73.64 21.6541L73.05 22.2441Z" fill-rule="evenodd" fill="#05397F">
</path>
<path d="M100.25 26.4541L100.25 26.5441L100.25 26.6441C100.251 26.6741 100.251 26.7041 100.25 26.7341L100.25 26.8041L100.25 26.8741L100.33 26.9841L100.47 26.9841L100.6 26.9841L100.72 26.9841L100.83 26.9841L100.93 26.9841L101.03 26.9841L101.38 26.8141L101.52 26.7441L101.76 26.6441L101.9 26.5941L102.05 26.5341L102.23 26.4841L102.89 26.4841L103.09 26.4841L103.59 27.1441L103.69 27.1441L103.93 27.3441L104.18 27.5641L104.36 27.6841L104.53 27.8141L104.81 27.9441L105.15 28.0341L105.3 28.0341L105.38 28.0341L105.45 28.0841L105.56 28.0841L105.56 28.1441L105.7 28.1441L105.84 28.1441L105.98 28.1441L106.1 28.1441L106.16 28.1441L106.23 28.1441L106.32 28.1441L106.55 28.3641L106.64 28.3641L106.91 28.5441L107.19 28.7341L107.32 28.7841L107.45 28.8341L107.64 28.9341L107.82 29.0441L108 29.1641L108.16 29.2941L108.32 29.4441L108.41 29.5441L108.5 29.6541L108.63 29.7241L108.63 29.7741C108.752 29.8917 108.885 29.995 109.03 30.0841L109.08 30.0841L109.34 30.2641L109.47 30.2641L109.47 30.3741L109.47 30.4541L109.47 30.5441L109.47 30.6241L109.47 30.7041L109.41 30.8641L109.33 31.0641L109.26 31.1141C109.14 31.1841 109.01 31.2341 108.88 31.2941L108.72 31.3641C108.64 31.4015 108.563 31.4448 108.49 31.4941C108.525 31.6122 108.585 31.7155 108.67 31.8041C108.759 31.8862 108.852 31.9629 108.95 32.0341L109.49 32.3541L109.76 32.5041L109.9 32.5841L110.03 32.6741L110.12 32.6741L110.22 32.6741L110.32 32.6741L110.46 32.6041L110.56 32.5441L110.66 32.4741L110.75 32.4041L110.83 32.3241L110.92 32.2241L110.92 32.1541C110.922 32.1307 110.922 32.1074 110.92 32.0841C110.925 32.0307 110.925 31.9774 110.92 31.9241C110.925 31.8441 110.925 31.7641 110.92 31.6841L110.92 31.6341L110.92 31.5141L110.92 31.4241L110.92 31.3441L110.92 31.2541L110.92 31.1741L110.92 31.0841L110.92 30.9941L110.92 30.9041L110.83 30.7241L110.74 30.5441C110.67 30.4141 110.6 30.2841 110.54 30.1541L110.22 29.7241L110.03 29.5241L109.83 29.3341L109.83 29.2741L109.74 29.1841L109.36 28.7941C109.325 28.7522 109.285 28.7155 109.24 28.6841L109.12 28.5741L109.01 28.4941L108.89 28.4141L108.74 28.3141L108.58 28.2341L108.13 28.0241L108.01 27.9041L107.73 27.6341L107.61 27.5441L107.55 27.5441L107.49 27.5441L107.43 27.5441L107.37 27.5441L107.14 27.5441L107.01 27.5441L106.87 27.4341L106.72 27.3141L106.44 27.0841L106.31 26.9941L106.25 26.9941L106.19 26.9941L106.13 26.9941L105.56 26.9941L105.01 26.3641L104.57 26.3641L104.47 26.3641L104.37 26.3641L104.29 26.3641L104.21 26.3641L104.13 26.3641L104.06 26.3041C103.959 26.2295 103.862 26.1495 103.77 26.0641L103.49 25.8341L103.78 25.6141L103.78 25.5441L103.78 25.4641L103.78 25.3941L103.78 25.3241L103.78 25.2541L103.78 25.1441C103.78 25.1441 103.78 25.0741 103.78 25.0341L103.69 24.9541L103.59 24.8641L103.53 24.8141L103.27 24.7641L103.21 24.7641L102.86 24.8241L102.51 24.8941L102.36 25.0041L102.29 25.0041L102.15 25.0041L102.02 25.0041C101.97 25.0088 101.92 25.0088 101.87 25.0041L101.74 25.1041L101.68 25.1041L102 25.1041L101.82 25.1041L101.65 25.1041L101.48 25.1041L101.16 25.2141L100.84 25.3141L100.73 25.3841L100.49 25.5541L100.4 25.6341L100.4 25.6841L100.4 25.7441L100.4 25.8041L100.4 25.8741L100.4 25.9541L100.4 26.0241C100.22 26.3341 100.23 26.3941 100.25 26.4541Z" fill-rule="evenodd" fill="#05397F">
</path>
<path d="M109.65 26.6641C109.645 26.6941 109.645 26.7241 109.65 26.7541C109.65 26.7541 109.65 26.8141 109.65 26.8541L109.65 26.9541L109.65 27.0441C109.65 27.0441 109.65 27.1241 109.65 27.1541C109.652 27.1874 109.652 27.2208 109.65 27.2541C109.669 27.3028 109.693 27.3494 109.72 27.3941L109.79 27.5241L109.93 27.7341C109.971 27.8048 110.017 27.8714 110.07 27.9341L110.22 28.0241L110.38 28.1041L110.45 28.1041C110.591 28.1638 110.724 28.2371 110.85 28.3241L110.92 28.3241L111.01 28.3741C111.13 28.4341 111.25 28.5041 111.38 28.5541L112 28.5541L112.1 28.5541L112.21 28.5541L112.44 28.6241L112.53 28.6241L112.62 28.6241L112.85 28.6241L112.92 28.6241L113.03 28.6241L113.15 28.6741L113.26 28.6741L113.36 28.6741L113.58 28.6741L113.68 28.6741L113.78 28.6741L113.88 28.6741L113.98 28.6741L114.13 28.5941L114.28 28.5041L114.42 28.4241L114.69 28.2541L114.82 28.1241L114.92 28.0041L114.99 27.8841L115.04 27.7741L115.04 27.6741L115.04 27.5841L115.04 27.4941L115.04 27.4141L114.99 27.3241L114.93 27.2441L114.86 27.1641L114.77 27.0841L114.67 27.0041L114.56 26.9241L114.35 26.7941L114.16 26.7941C114.034 26.8168 113.911 26.8502 113.79 26.8941L113.74 26.8941L113.4 26.9941L113.34 26.9941L113.21 27.0541L113.12 27.0541L113.03 27.0541L113 27.0541L112.77 27.0041C112.7 26.9936 112.63 26.9936 112.56 27.0041L112.48 27.0041L112.4 27.0041L112.32 27.0041L112.23 27.0041L112.01 27.0041L111.84 27.0541L111.68 26.9041L111.4 26.6341C111.353 26.563 111.309 26.4896 111.27 26.4141L111.27 26.2541L111.38 26.1641L111.5 26.1641L111.57 26.1641L111.62 26.1641L111.84 26.1641L111.9 26.1641L111.96 26.1641L112.02 26.1641L112.17 26.0241L112.25 25.9541L112.35 25.8841C112.397 25.8587 112.437 25.8254 112.47 25.7841C112.475 25.7108 112.475 25.6374 112.47 25.5641L112.47 25.5041L112.38 25.1841L112.38 25.0841C112.26 25.0258 112.133 24.9991 112 25.0041L111.73 25.0041L111.57 25.0041L111.43 25.0041L111.29 25.0041L111 25.0041L110.36 25.2041L110.21 25.3241L110.07 25.4441L110.07 25.5041L110.07 25.5641L109.98 25.6641L109.91 25.7741C109.87 25.8256 109.84 25.8822 109.82 25.9441C109.789 26.0011 109.765 26.0611 109.75 26.1241L109.75 26.2441L109.75 26.3341C109.745 26.3674 109.745 26.4008 109.75 26.4341L109.75 26.6141L109.65 26.6641Z" fill-rule="evenodd" fill="#05397F">
</path>
<path d="M105.87 25.9041L105.93 26.0441C105.959 26.0877 105.983 26.1344 106 26.1841L106.07 26.1841L106.17 26.2341L106.26 26.2341L106.35 26.2341L106.66 26.2341L106.73 26.2341L106.81 26.2341L107.17 26.0841L107.39 25.9741L107.39 25.9041L107.47 25.8241L107.56 25.7541L107.74 25.6041L108.15 25.3041L108.28 25.1941L108.33 25.1341L108.33 25.0841L108.33 25.0341L108.33 24.9441L108.43 24.8741L108.43 24.8141L108.43 24.7241L108.43 24.6341L108.43 24.5641C108.461 24.5161 108.487 24.4661 108.51 24.4141L108.56 24.3241L108.56 24.2241L108.56 24.1441C108.56 24.1441 108.56 24.0941 108.56 24.0641C108.555 24.0407 108.555 24.0174 108.56 23.9941L108.56 23.9041C108.56 23.9041 108.56 23.8541 108.56 23.8241C108.56 23.7941 108.56 23.7641 108.56 23.7341L108.56 23.6141C108.563 23.5774 108.563 23.5407 108.56 23.5041L108.56 23.4341L108.56 23.3541L108.49 23.2941L108.41 23.2941L108.27 23.3741L108.16 23.4241L108.1 23.4241L107.9 23.5741L107.66 23.7041L107.42 23.8441L106.21 24.7441L106.16 24.8641L105.89 25.1441L105.89 25.2041L105.83 25.3141C105.825 25.3507 105.825 25.3874 105.83 25.4241L105.83 25.5241L105.76 25.5241C105.765 25.5941 105.765 25.6641 105.76 25.7341L105.87 25.9041Z" fill-rule="evenodd" fill="#05397F">
</path>
<path d="M22.18 26.5541C22.26 26.7041 22.35 26.8541 22.44 27.0041L22.51 27.1241L22.79 27.5341C22.88 27.6741 22.98 27.8041 23.08 27.9441C23.32 28.2841 23.57 28.6141 23.82 28.9441L24.01 29.1841L25.87 31.6741C26.3 32.2641 26.74 32.8441 27.22 33.4941L27.6 33.9941L27.96 34.4841L28.17 34.8041L28.37 35.1341L28.5 35.7341L28 36.8441L27.07 38.2141L26.74 38.5541L26.29 39.1041L26.2 39.2341L26 39.5941L25.9 39.8041L25.78 40.1041L25.73 40.3241L25.73 40.5441L25.73 40.6041L27 40.6041L27.13 40.6041L27.2 40.6041L27.36 40.5141L27.51 40.3941L27.65 40.2541L27.8 40.0041L27.93 39.8141L28.07 39.6041L28.14 39.4841L29.14 37.8541L29.69 37.0941L30.23 36.4541L30.83 35.7041L31.44 35.0741L32.77 33.8341L33.95 32.8341L34.42 32.5441L34.53 32.5441L34.78 32.4141L34.91 32.3541L35.54 32.1641L35.8 32.0541L36.12 31.8241L36.21 31.7441L36.29 31.6541L36.5 31.4041L36.5 31.2141L36.5 31.0041L36.5 30.9041L36.5 30.8041L36.5 30.7141L36.5 30.6341L36.5 30.5641L36.5 30.5041L36.5 30.4441L36.5 30.3941L36.45 30.3441L36.39 30.3441L36.16 30.2241L36.06 30.2241L35.97 30.2241L35.5 30.2241L35.38 30.2241L35.04 30.3341L34.76 30.4741L34.47 30.6441L34.2 30.8341L33.95 31.0241L32.8 31.9141L31.92 32.6041L31.35 33.0441L30.8 33.4741L30.64 33.5341L30.5 33.5941L30.36 33.5941L30.22 33.5941L29.95 33.5941L29.8 33.5941L29.68 33.5141L29.49 33.2741L29.29 33.0041C29.16 32.8341 29.03 32.6741 28.91 32.5041C28.79 32.3341 28.54 32.0041 28.34 31.7541L28.14 31.5141L28.07 31.4141L28 31.3241L27.95 31.2241L27.95 31.1141L27.95 31.0141L27.95 30.9041L27.95 30.5641L27.95 30.4541L27.95 30.3341L28 30.2141L28 30.1041L28.07 29.9841L28.14 29.8641L28.25 29.7141L28.51 29.5041L28.63 29.4041L28.75 29.2941L28.91 29.1141L29.06 28.9141L29.13 28.8041L29.2 28.6841L29.27 28.5541L29.33 28.4141L29.39 28.2641L29.44 28.1041L29.49 27.9341L29.49 27.7941C29.4851 27.7707 29.4851 27.7474 29.49 27.7241L29.49 27.6341L29.49 27.6341L29.43 27.5541L29.34 27.4641L29.29 27.4641L29.19 27.4641L29.11 27.4641L29.03 27.4641L28.95 27.4641L28.88 27.4641L28.52 27.5941L28.45 27.6641L28.38 27.7341L28.14 27.9641L28 28.0041C27.88 28.1941 27.77 28.4141 27.66 28.6341C27.55 28.8541 27.43 29.0741 27.31 29.2641L27.19 29.3741L27.08 29.4541L27 29.5041L26.84 29.5041L26.66 29.5041L26.49 29.4341L26.33 29.3241L26.17 29.1541L25 27.0041L24.81 26.6941L24.61 26.4141L24.51 26.2941L24.41 26.1741L24.3 26.0041L24.2 25.9141L24.1 25.8241L24 25.7541L23.89 25.6841L23.79 25.6241L23.69 25.5741L23.59 25.5741L23.38 25.5241L22.89 25.5241L22.83 25.5241L22.42 25.6441L22.21 25.8041L22.11 25.9141L22 26.0041C22.0375 26.1947 22.0975 26.3781 22.18 26.5541Z" fill-rule="evenodd" fill="#05397F">
</path>
<path d="M107.718 119.097C107.686 119.065 107.654 119.032 107.622 119C95.3533 119.02 87.9486 127.007 86.1902 129.146C80.0692 127.034 73.3319 125.847 66.2709 125.844L66.248 125.844C59.187 125.847 52.4497 127.034 46.3287 129.146C44.5703 127.007 37.1656 119.02 24.8964 119C24.864 119.033 24.8319 119.066 24.8 119.099C32.5468 134.989 48.1724 146 66.2545 146C84.3372 146 99.968 134.988 107.718 119.097Z" fill-rule="evenodd" fill="#05397F">
</path>
</svg></svg></g></g><defs><clipPath id="SvgjsClipPath1105"><rect width="1000" height="1000" x="0" y="0" rx="350" ry="350"></rect></clipPath></defs></svg>