<?xml version="1.0" standalone="no"?>
<!DOCTYPE svg PUBLIC "-//W3C//DTD SVG 20010904//EN"
 "http://www.w3.org/TR/2001/REC-SVG-20010904/DTD/svg10.dtd">
<svg version="1.0" xmlns="http://www.w3.org/2000/svg"
 width="672.000000pt" height="672.000000pt" viewBox="0 0 672.000000 672.000000"
 preserveAspectRatio="xMidYMid meet">
<metadata>
Created by potrace 1.14, written by Peter Selinger 2001-2017
</metadata>
<g transform="translate(0.000000,672.000000) scale(0.100000,-0.100000)"
fill="#000000" stroke="none">
<path d="M3159 6716 c-2 -2 -35 -7 -74 -11 -168 -16 -365 -58 -545 -115 -88
-28 -203 -72 -215 -82 -5 -4 -17 -8 -27 -8 -10 0 -18 -4 -18 -10 0 -5 -5 -10
-11 -10 -30 0 -316 -158 -399 -220 -141 -105 -210 -159 -245 -190 -52 -47
-212 -207 -250 -250 -107 -122 -251 -327 -311 -440 -16 -30 -31 -57 -34 -60
-12 -11 -95 -190 -127 -275 -19 -49 -38 -99 -43 -110 -26 -57 -93 -324 -115
-455 -3 -19 -7 -46 -10 -60 -17 -91 -20 -246 -20 -1000 0 -747 3 -895 19
-1000 3 -14 7 -44 11 -68 4 -23 8 -52 9 -65 4 -30 14 -77 36 -173 11 -45 21
-90 23 -100 2 -11 6 -26 9 -34 3 -8 20 -62 38 -120 36 -118 93 -264 147 -378
36 -77 161 -302 173 -312 3 -3 19 -26 35 -52 17 -27 33 -48 38 -48 4 0 7 -5 7
-11 0 -10 80 -114 150 -194 46 -53 203 -210 261 -260 162 -143 417 -304 609
-384 30 -13 69 -29 85 -36 17 -8 59 -23 95 -35 36 -12 74 -26 85 -30 46 -19
267 -70 365 -85 167 -25 237 -30 445 -30 185 0 328 8 375 20 8 2 35 7 60 10
25 2 56 7 70 11 14 3 34 7 45 9 11 1 40 8 65 15 25 7 54 14 65 16 83 16 479
162 495 184 3 3 23 14 45 25 87 40 363 218 395 254 3 4 22 19 43 35 41 30 53
41 163 147 82 79 144 146 199 214 21 28 42 52 45 55 34 30 197 284 268 420 67
128 179 404 197 485 2 11 11 45 20 75 8 30 24 93 34 140 18 79 22 100 37 198
3 20 7 48 9 60 16 96 20 297 20 1007 0 446 -4 844 -8 885 -15 141 -43 326 -52
340 -2 4 -7 22 -10 41 -3 19 -13 57 -21 85 -8 28 -16 60 -19 70 -10 50 -82
242 -133 354 -132 294 -309 548 -542 780 -138 137 -167 163 -255 230 -33 25
-66 51 -73 58 -8 7 -28 20 -45 29 -18 9 -34 19 -37 22 -11 15 -149 96 -254
151 -105 54 -299 136 -376 158 -19 6 -66 20 -105 31 -102 31 -249 62 -360 76
-27 4 -61 9 -75 11 -30 6 -476 14 -481 10z m496 -141 c104 -15 176 -28 245
-43 95 -20 90 -19 93 -22 1 -1 10 -3 20 -5 136 -26 510 -184 629 -267 14 -10
28 -18 31 -18 3 0 42 -26 87 -57 45 -32 90 -62 99 -68 9 -5 18 -12 21 -15 3
-3 43 -37 90 -76 190 -160 340 -327 481 -536 33 -48 59 -90 59 -94 0 -3 8 -18
19 -32 28 -40 125 -236 161 -327 32 -79 86 -233 88 -248 0 -4 7 -31 16 -60 8
-28 22 -88 30 -132 9 -44 19 -91 21 -105 3 -14 8 -45 10 -70 3 -25 7 -61 10
-80 11 -72 16 -317 15 -715 -1 -593 -7 -1125 -13 -1165 -3 -19 -9 -60 -12 -90
-4 -30 -8 -62 -10 -70 -1 -8 -6 -33 -9 -54 -8 -52 -41 -204 -47 -216 -1 -3 -3
-9 -4 -15 -2 -11 -1 -8 -39 -120 -15 -44 -28 -87 -30 -96 -11 -45 -127 -293
-176 -376 -24 -40 -120 -191 -132 -208 -27 -37 -137 -176 -162 -205 -50 -57
-228 -232 -274 -270 -24 -19 -56 -45 -70 -58 -43 -36 -251 -175 -317 -211 -33
-18 -64 -36 -70 -39 -5 -4 -12 -7 -15 -7 -3 -1 -27 -13 -55 -27 -47 -24 -198
-89 -215 -92 -3 -1 -25 -9 -50 -18 -83 -30 -237 -73 -300 -84 -14 -3 -36 -7
-50 -10 -14 -3 -38 -7 -55 -9 -16 -3 -41 -7 -55 -10 -131 -26 -588 -26 -720 0
-14 3 -45 8 -70 11 -25 3 -81 15 -125 25 -44 11 -91 23 -105 25 -39 8 -248 79
-320 109 -149 62 -360 179 -468 258 -113 84 -163 124 -231 185 -41 37 -79 72
-85 78 -52 54 -120 129 -161 179 -28 33 -56 66 -63 74 -30 32 -190 283 -227
356 -22 44 -43 81 -47 83 -5 2 -8 10 -8 18 0 7 -9 29 -19 47 -41 73 -129 329
-156 452 -3 11 -9 40 -15 65 -14 66 -22 102 -25 130 -2 14 -8 58 -14 99 -19
129 -23 301 -24 1031 -1 625 3 840 17 940 14 104 19 137 22 155 2 10 6 35 9
55 3 19 19 87 36 150 16 63 33 126 36 139 3 14 24 70 45 125 21 56 40 106 41
111 2 6 26 57 54 115 101 206 226 396 368 559 65 76 244 249 322 311 39 32
118 89 175 126 57 37 114 74 128 84 72 48 390 193 450 204 3 1 19 7 35 13 35
14 175 53 214 59 14 3 34 7 43 10 39 11 135 26 263 39 39 4 72 9 74 11 6 6
441 -4 486 -11z"/>
<path d="M2644 6395 c-23 -35 -28 -199 -7 -220 18 -19 27 -19 43 0 14 17 55
21 45 5 -4 -6 -8 -56 -9 -112 -2 -94 -4 -103 -29 -127 -24 -25 -25 -55 -1 -50
29 5 46 -5 64 -41 26 -51 51 -64 107 -55 28 4 49 2 58 -5 30 -25 49 -7 70 65
21 68 21 71 3 95 -16 23 -23 58 -19 102 0 10 19 22 50 33 59 19 78 37 57 54
-11 9 -25 7 -65 -9 l-52 -20 -20 48 c-23 53 -40 67 -84 67 -32 0 -31 -4 -18
79 4 27 2 41 -8 47 -28 18 -47 8 -80 -41 -48 -71 -61 -73 -56 -7 9 98 -16 143
-49 92z m234 -247 c14 -14 16 -68 2 -68 -5 0 -10 5 -10 10 0 6 -7 10 -16 10
-8 0 -25 5 -36 11 l-21 11 24 19 c28 22 41 23 57 7z m-60 -110 c-3 -7 -11 -13
-18 -13 -7 0 -15 6 -17 13 -3 7 4 12 17 12 13 0 20 -5 18 -12z m108 -93 l3
-51 -39 -11 c-21 -5 -43 -7 -48 -4 -12 8 -42 98 -34 105 13 13 32 4 44 -21 7
-14 19 -28 26 -31 17 -5 15 23 -3 38 -23 19 -19 48 8 52 29 4 39 -14 43 -77z"/>
<path d="M3999 6374 c-7 -9 -12 -30 -10 -46 3 -37 -36 -146 -58 -157 -9 -5
-36 -10 -61 -11 -48 -2 -114 -7 -128 -9 -12 -2 -8 -49 5 -62 6 -6 38 -10 72
-10 51 0 61 -3 61 -17 0 -10 -8 -25 -17 -33 -10 -9 -35 -35 -56 -57 -21 -22
-69 -62 -108 -88 -38 -25 -68 -49 -65 -51 3 -3 20 -7 37 -8 40 -4 93 28 141
84 30 36 70 56 67 34 -3 -20 2 -33 12 -30 6 1 19 -27 28 -63 10 -36 23 -75 29
-86 13 -24 98 -84 118 -84 28 0 23 22 -12 60 -53 58 -58 66 -89 160 -30 92
-32 109 -15 151 11 25 17 28 60 27 57 0 90 15 90 42 0 15 -38 48 -47 42 -2 -1
-10 -2 -18 -2 -19 0 -19 33 0 70 8 16 16 37 18 47 1 10 5 23 8 28 7 13 4 45
-5 68 -10 21 -39 22 -57 1z"/>
<path d="M2490 6190 c0 -12 10 -19 33 -23 17 -3 35 -2 39 2 13 12 -9 32 -40
36 -26 3 -32 0 -32 -15z"/>
<path d="M2539 6068 c-1 -18 0 -37 1 -43 2 -5 2 -21 1 -34 -3 -53 75 -244 105
-255 22 -8 46 20 49 57 3 33 0 37 -29 47 -42 13 -52 38 -67 147 -15 113 -15
113 -39 113 -16 0 -20 -7 -21 -32z"/>
<path d="M5012 5773 c-12 -10 -33 -26 -47 -36 -17 -12 -25 -26 -23 -40 8 -56
94 -10 105 56 6 41 -3 46 -35 20z"/>
<path d="M3228 5754 c-2 -1 -34 -5 -73 -8 -65 -6 -83 -8 -160 -21 -152 -26
-453 -126 -477 -160 -4 -5 -8 -7 -8 -3 0 4 -15 -1 -32 -11 -18 -10 -55 -30
-83 -45 -283 -157 -537 -421 -697 -726 -108 -205 -170 -410 -201 -671 -14
-110 -16 -1399 -3 -1489 23 -165 25 -175 42 -255 64 -291 219 -604 425 -859
35 -43 202 -208 239 -237 17 -13 37 -29 43 -35 23 -20 152 -110 197 -136 102
-59 140 -78 230 -116 149 -64 336 -113 487 -129 88 -9 330 -9 408 1 540 65
1018 370 1332 847 65 99 164 289 188 359 1 3 4 12 8 20 22 58 50 139 53 159 3
14 7 28 10 33 3 5 7 18 10 31 4 24 11 53 19 90 6 23 23 121 31 172 2 17 7 62
10 100 8 95 8 1315 0 1390 -13 121 -18 152 -38 250 -33 165 -132 430 -196 525
-9 14 -17 27 -17 30 -1 10 -81 128 -134 195 -167 213 -383 387 -636 510 -101
50 -271 112 -355 131 -19 4 -37 8 -40 9 -38 9 -124 26 -156 30 -23 3 -59 8
-80 11 -38 6 -341 13 -346 8z m-573 -493 c11 -5 65 -28 120 -51 211 -89 378
-193 469 -291 77 -82 77 -87 14 -161 -99 -116 -177 -251 -212 -368 -9 -30 -21
-68 -26 -85 -5 -16 -11 -46 -14 -65 -2 -19 -7 -55 -11 -80 -13 -95 -15 -129
-14 -265 0 -143 3 -222 15 -400 9 -129 10 -470 2 -558 -4 -38 -14 -80 -23 -93
-16 -24 -18 -25 -98 -17 -103 9 -300 10 -349 1 l-38 -7 0 1249 0 1249 73 -25
c39 -13 81 -28 92 -33z m1750 -422 l0 -410 -40 -25 c-22 -14 -53 -31 -70 -40
-16 -8 -39 -21 -49 -29 -19 -14 -20 -38 -22 -777 -2 -420 -5 -781 -7 -803 -15
-136 -28 -208 -53 -290 -28 -88 -77 -193 -106 -225 -10 -11 -18 -23 -18 -27 0
-13 -171 -173 -184 -173 -3 0 -31 -17 -63 -38 -72 -47 -177 -93 -268 -118 -74
-20 -266 -26 -335 -11 -166 35 -298 99 -401 194 -51 48 -123 136 -124 153 0 3
-8 16 -16 30 -9 14 -32 52 -52 85 -37 63 -92 120 -139 144 -34 18 -35 28 -5
69 82 110 228 141 427 90 146 -38 219 -25 252 42 30 61 40 366 24 705 -4 83
-9 184 -11 225 -5 103 -5 381 0 461 19 304 192 628 451 847 185 156 472 290
683 318 25 3 48 8 50 10 2 2 21 4 40 4 l36 0 0 -411z m-2560 -325 c28 -14 140
-71 250 -126 110 -56 202 -103 204 -104 2 -2 5 -340 6 -751 2 -412 5 -757 8
-768 2 -11 8 -42 11 -70 58 -434 276 -784 585 -939 143 -73 297 -105 480 -101
274 7 484 95 666 280 33 34 73 81 90 106 16 24 33 46 36 49 32 26 154 313 173
410 3 14 12 57 20 95 8 39 18 95 21 125 3 30 8 73 10 95 3 22 5 346 5 720 1
375 4 685 8 691 6 10 108 72 187 114 17 9 62 35 102 58 72 42 112 65 189 108
l41 23 -3 -897 c-1 -493 -5 -917 -8 -941 -9 -73 -17 -124 -27 -171 -5 -25 -12
-63 -15 -85 -3 -21 -8 -44 -12 -50 -3 -5 -8 -17 -9 -26 -6 -40 -69 -212 -106
-289 -35 -75 -116 -217 -139 -245 -4 -5 -31 -39 -59 -75 -129 -166 -279 -295
-454 -392 -98 -54 -287 -130 -360 -144 -11 -2 -33 -7 -50 -11 -16 -4 -32 -7
-35 -8 -12 -3 -128 -18 -155 -21 -59 -6 -261 -5 -305 1 -25 3 -58 8 -75 10
-16 2 -30 4 -30 5 0 1 -11 3 -25 4 -168 19 -451 140 -620 267 -82 61 -227 199
-282 266 -192 241 -313 532 -374 903 -9 56 -16 1910 -7 1910 4 0 31 -12 58
-26z"/>
<path d="M2621 2553 c-33 -41 -7 -93 47 -93 48 0 72 55 40 95 -26 33 -61 32
-87 -2z"/>
<path d="M4771 5717 c-36 -10 -46 -18 -52 -39 -9 -35 11 -43 64 -24 37 12 39
12 73 -21 20 -18 43 -33 52 -34 9 0 25 -2 35 -4 27 -5 108 -55 114 -71 3 -8
11 -14 18 -14 8 0 11 -8 8 -20 -3 -11 -12 -20 -19 -20 -24 0 -15 -19 17 -39
40 -24 57 -18 61 22 3 29 -16 72 -47 103 -23 23 -91 64 -107 64 -10 0 -18 5
-18 10 0 6 -9 10 -19 10 -11 0 -27 7 -36 16 -8 9 -22 13 -30 10 -17 -6 -29 10
-30 39 0 25 -24 28 -84 12z"/>
<path d="M5113 5701 c-38 -45 -19 -104 38 -116 69 -15 121 -13 140 6 38 38 18
54 -66 54 -50 0 -60 3 -63 19 -3 12 0 16 7 11 16 -9 41 13 34 31 -8 21 -70 18
-90 -5z"/>
<path d="M1600 5685 c-11 -13 -7 -25 26 -73 21 -31 41 -59 44 -62 4 -3 19 -23
36 -45 40 -55 39 -54 81 -110 68 -89 70 -97 39 -149 -14 -24 -32 -51 -39 -58
-25 -25 -47 -63 -47 -78 0 -12 9 -16 32 -15 34 2 35 3 102 107 51 79 174 197
238 228 44 21 53 30 55 54 2 28 1 28 -36 23 -27 -3 -61 -22 -115 -66 -43 -34
-87 -61 -99 -61 -30 1 -87 77 -87 118 0 19 7 36 18 44 20 14 42 50 42 67 0 25
-41 8 -73 -30 -21 -26 -39 -39 -46 -35 -6 4 -25 31 -41 60 -16 28 -39 62 -50
74 -24 26 -62 29 -80 7z"/>
<path d="M4651 5551 c-15 -10 0 -27 98 -113 55 -49 36 -67 -76 -69 -64 -2 -82
-12 -67 -36 15 -24 74 -24 141 -1 29 10 61 18 72 18 20 0 55 -45 47 -59 -7
-11 25 -38 44 -36 8 1 21 3 28 3 22 3 13 32 -30 88 -47 62 -43 76 21 80 22 1
45 5 51 9 19 12 10 50 -21 84 -32 35 -45 33 -51 -9 -2 -15 -11 -26 -23 -28
-11 -2 -29 -12 -40 -23 -20 -18 -21 -17 -60 21 -22 21 -45 39 -50 40 -6 0 -18
9 -28 20 -18 22 -34 25 -56 11z"/>
<path d="M5310 2722 c0 -25 9 -32 111 -83 l112 -56 -44 -15 c-201 -70 -199
-69 -199 -106 0 -23 4 -33 13 -29 6 3 62 24 122 47 61 23 124 48 142 56 18 8
49 12 70 10 39 -5 118 -9 141 -7 13 1 17 50 5 52 -5 1 -33 3 -63 5 -30 2 -71
5 -90 7 -19 2 -94 36 -166 75 -72 40 -136 72 -142 72 -7 0 -12 -13 -12 -28z"/>
<path d="M970 2677 c-47 -24 -60 -134 -23 -197 20 -34 81 -70 117 -70 68 0
113 39 151 130 10 25 28 55 39 68 25 28 76 30 100 3 20 -22 24 -78 7 -109 -17
-32 -13 -42 17 -42 25 0 31 6 40 38 31 101 -31 193 -125 187 -62 -4 -92 -29
-133 -113 -20 -39 -43 -79 -51 -88 -23 -22 -76 -21 -101 3 -25 26 -32 105 -12
152 17 41 8 55 -26 38z"/>
<path d="M5280 2374 c-12 -31 -62 -250 -64 -279 -1 -15 5 -20 23 -20 21 0 27
7 37 47 6 26 10 49 8 51 -3 2 1 9 8 15 9 7 34 6 83 -3 39 -7 84 -16 100 -18
17 -3 66 -13 110 -21 44 -9 90 -18 102 -20 24 -5 36 7 38 36 1 11 -9 18 -29
22 -17 3 -42 9 -56 12 -14 3 -38 8 -55 11 -109 19 -267 52 -271 56 -3 2 0 24
5 48 16 69 14 89 -9 89 -13 0 -24 -10 -30 -26z"/>
<path d="M1335 2349 c-49 -10 -101 -21 -115 -23 -14 -3 -50 -9 -80 -15 -30 -6
-66 -13 -80 -16 -94 -18 -106 -25 -89 -58 8 -13 17 -17 37 -12 15 3 41 7 57 9
17 3 50 9 75 15 25 6 48 11 51 11 4 0 12 -21 19 -47 26 -101 31 -157 15 -158
-5 -1 -43 -7 -82 -14 -40 -7 -76 -13 -80 -13 -24 0 -40 -19 -36 -43 3 -14 7
-25 8 -25 2 0 47 9 102 20 54 12 107 23 118 24 35 6 89 16 115 21 53 11 76 15
105 21 38 7 39 8 31 39 -6 23 -11 26 -34 21 -36 -8 -71 -15 -107 -21 -16 -3
-38 -8 -47 -11 -12 -4 -19 2 -23 18 -43 186 -42 183 -13 185 13 1 45 7 73 13
27 6 60 13 73 16 24 5 32 48 10 56 -7 3 -53 -3 -103 -13z"/>
<path d="M5178 2006 c-5 -24 3 -27 221 -100 124 -42 229 -72 233 -68 5 5 10
17 12 28 4 18 -19 28 -212 93 -120 39 -224 71 -233 71 -10 0 -19 -11 -21 -24z"/>
<path d="M1497 1873 c-2 -2 -280 -12 -359 -12 -50 -1 -58 -4 -58 -20 0 -31 22
-39 88 -35 l62 4 30 -68 c17 -37 35 -75 40 -84 11 -19 6 -25 -54 -72 -39 -31
-43 -43 -22 -71 13 -18 20 -14 117 65 122 100 124 102 211 175 l67 56 -15 32
c-14 29 -20 32 -61 32 -24 0 -45 -1 -46 -2z m-13 -98 c-27 -24 -57 -47 -66
-50 -10 -4 -18 -10 -18 -15 0 -4 -11 -15 -25 -24 l-25 -16 -30 66 c-17 37 -29
69 -26 71 3 3 53 7 113 10 59 3 110 7 112 9 2 2 7 2 10 -1 2 -3 -17 -25 -45
-50z"/>
<path d="M5150 1852 c-47 -15 -90 -85 -92 -152 -2 -49 57 -100 120 -105 28 -2
103 33 158 75 49 37 96 42 125 13 11 -11 22 -28 23 -39 5 -29 -29 -89 -70
-123 l-37 -30 26 -12 c35 -16 68 5 108 69 59 94 28 186 -73 213 -41 11 -52 10
-87 -5 -22 -10 -48 -26 -58 -35 -81 -75 -165 -79 -177 -10 -5 33 25 85 59 101
14 6 25 14 25 17 0 12 -35 28 -50 23z"/>
<path d="M1675 1631 c-5 -9 -91 -61 -228 -140 -84 -48 -147 -91 -147 -100 0
-5 7 -17 16 -25 14 -14 19 -13 54 9 22 14 42 25 45 25 3 0 11 5 18 10 13 11
228 140 233 140 2 0 -7 -16 -19 -36 -32 -51 -38 -61 -82 -139 -22 -38 -45 -79
-52 -90 -42 -69 -55 -104 -50 -128 8 -30 39 -40 66 -20 12 8 31 20 44 26 62
34 317 189 322 196 2 5 -4 16 -15 26 -19 17 -21 16 -74 -19 -30 -20 -57 -36
-59 -36 -3 0 -41 -22 -84 -48 -43 -27 -89 -55 -102 -62 l-24 -12 23 38 c13 22
32 51 42 66 10 14 18 29 18 33 0 3 15 29 33 58 18 29 47 79 64 113 30 56 31
62 17 82 -19 28 -51 45 -59 33z"/>
<path d="M4995 1561 c-46 -19 -163 -161 -144 -174 2 -2 31 -21 64 -42 33 -22
62 -42 65 -45 20 -20 243 -160 255 -160 9 0 19 10 24 23 8 20 0 27 -75 75 -46
30 -84 57 -84 61 0 4 13 20 29 35 35 34 69 36 180 11 82 -18 84 -18 97 0 8 11
13 23 11 29 -4 13 -175 48 -220 44 -38 -4 -38 -3 -34 28 11 78 -90 147 -168
115z m75 -66 c16 -8 31 -24 35 -35 7 -23 -3 -80 -14 -80 -4 0 -14 -11 -21 -25
-7 -14 -17 -25 -21 -25 -4 0 -35 19 -68 42 -64 44 -64 46 -24 94 21 24 52 43
71 44 7 0 26 -7 42 -15z"/>
<path d="M4690 1243 l-92 -87 54 -51 c30 -27 90 -81 133 -120 43 -38 95 -85
114 -102 20 -18 41 -33 47 -33 7 0 52 38 100 84 77 73 86 86 75 100 -7 9 -18
16 -24 16 -7 0 -41 -29 -77 -65 l-66 -66 -25 22 c-13 12 -42 37 -64 56 l-40
34 58 54 c61 57 67 69 40 84 -15 8 -29 0 -75 -46 l-56 -56 -29 21 c-15 11 -41
33 -56 50 l-28 29 65 59 c68 62 75 74 52 93 -12 10 -32 -5 -106 -76z"/>
<path d="M1875 1235 c-59 -17 -85 -33 -128 -79 -43 -46 -68 -95 -71 -144 -4
-41 32 -118 70 -154 31 -28 119 -78 139 -78 7 0 48 34 90 74 l78 75 -63 60
c-52 48 -67 58 -82 50 -25 -13 -23 -18 22 -64 l40 -41 -48 -46 c-46 -44 -50
-45 -78 -33 -63 27 -110 102 -100 158 8 46 62 127 85 127 6 0 11 4 11 9 0 13
52 32 101 36 77 6 138 -36 179 -122 22 -46 31 -51 49 -29 34 40 -48 156 -137
193 -46 19 -109 23 -157 8z"/>
<path d="M4559 1112 l-26 -17 29 -90 c16 -49 44 -136 62 -192 32 -97 32 -102
12 -91 -21 11 -167 109 -176 118 -18 18 -151 100 -162 100 -8 0 -23 -6 -33
-14 -18 -13 -18 -14 1 -30 10 -8 104 -72 208 -140 184 -121 190 -124 217 -111
27 15 43 38 31 49 -3 4 -7 12 -8 19 -3 22 -106 362 -117 389 -12 27 -12 28
-38 10z"/>
<path d="M2245 1008 c-34 -46 -227 -333 -232 -344 -2 -6 7 -18 21 -28 l25 -16
61 90 61 91 37 -22 c20 -13 48 -29 62 -38 14 -8 39 -23 56 -34 l32 -21 -60
-85 c-54 -78 -58 -87 -42 -98 37 -27 35 -29 154 147 46 69 96 143 111 165 27
39 27 40 9 59 -21 21 -47 16 -57 -11 -4 -10 -9 -20 -13 -23 -3 -3 -21 -26 -39
-52 -17 -27 -34 -48 -37 -48 -2 0 -45 23 -95 51 l-90 51 17 26 c9 15 32 49 52
76 26 37 32 54 25 65 -16 25 -40 24 -58 -1z"/>
<path d="M4166 874 c-19 -13 -18 -17 29 -106 27 -51 70 -133 96 -181 61 -117
73 -131 99 -115 11 7 20 17 20 21 0 8 -98 198 -169 327 -20 36 -41 66 -46 67
-6 1 -19 -5 -29 -13z"/>
<path d="M4019 808 c-14 -10 -12 -24 23 -132 22 -66 48 -142 58 -168 16 -43
16 -47 1 -39 -9 5 -23 18 -32 28 -9 10 -31 32 -50 48 -19 17 -74 66 -122 110
-76 68 -93 79 -123 78 -68 -2 -68 -4 8 -233 56 -168 74 -210 88 -210 42 0 40
22 -19 198 -32 95 -57 172 -56 172 1 0 11 -8 22 -17 28 -25 162 -144 189 -168
114 -104 126 -110 161 -93 19 9 27 20 25 33 -7 37 -124 380 -134 393 -12 14
-18 14 -39 0z"/>
<path d="M2712 772 c-22 -23 -164 -178 -207 -226 -5 -6 -30 -33 -54 -60 -34
-38 -40 -50 -30 -57 28 -18 53 -8 93 37 l41 46 89 -30 c48 -16 91 -35 96 -41
4 -7 6 -33 5 -59 -3 -54 8 -72 41 -72 l24 0 0 234 0 234 -31 11 c-41 14 -35
15 -67 -17z m35 -268 c-5 -5 -102 23 -134 39 -22 10 -20 12 40 79 34 38 69 79
77 91 14 19 15 12 18 -92 1 -63 1 -115 -1 -117z"/>
<path d="M3014 683 c-10 -59 -21 -106 -28 -131 -5 -17 -11 -46 -21 -107 -3
-16 -12 -57 -20 -90 -12 -53 -12 -61 1 -72 40 -30 47 -14 94 208 48 221 48
229 3 229 -18 0 -23 -7 -29 -37z"/>
<path d="M3585 648 c3 -35 7 -98 10 -140 2 -42 6 -80 7 -85 1 -4 -1 -25 -5
-45 -19 -93 -172 -112 -217 -28 -13 25 -18 58 -26 175 -3 50 -7 101 -9 115 -2
14 -4 31 -4 38 -1 7 -14 12 -31 12 l-30 0 5 -67 c3 -38 7 -104 10 -148 3 -44
7 -91 10 -103 14 -73 83 -126 164 -125 95 0 147 25 181 86 24 41 23 28 5 277
-1 25 -3 57 -4 73 -1 24 -5 27 -35 27 l-35 0 4 -62z"/>
</g>
</svg>
